<svg xmlns="http://www.w3.org/2000/svg" viewBox="0 0 750 500"><defs><style>.cls-1{fill:#ede7f6;}.cls-17,.cls-18,.cls-2{fill:#263238;}.cls-10,.cls-11,.cls-12,.cls-13,.cls-14,.cls-29,.cls-3,.cls-7,.cls-8,.cls-9{fill:none;}.cls-10,.cls-11,.cls-12,.cls-13,.cls-14,.cls-15,.cls-16,.cls-18,.cls-19,.cls-20,.cls-21,.cls-22,.cls-23,.cls-24,.cls-27,.cls-28,.cls-29,.cls-3,.cls-30,.cls-7,.cls-8,.cls-9{stroke:#263238;}.cls-15,.cls-18,.cls-19,.cls-20,.cls-21,.cls-22,.cls-23,.cls-24,.cls-27,.cls-28,.cls-29,.cls-3,.cls-30{stroke-linecap:round;}.cls-10,.cls-11,.cls-12,.cls-13,.cls-14,.cls-15,.cls-16,.cls-17,.cls-18,.cls-19,.cls-20,.cls-21,.cls-22,.cls-23,.cls-24,.cls-27,.cls-28,.cls-29,.cls-3,.cls-30,.cls-7,.cls-8,.cls-9{stroke-linejoin:round;}.cls-15,.cls-4{fill:#fff;}.cls-5{fill:#d6d6d6;}.cls-6{fill:#c4c4c4;}.cls-10,.cls-11,.cls-12,.cls-13,.cls-14,.cls-29,.cls-7,.cls-8,.cls-9{stroke-width:2px;}.cls-8{stroke-dasharray:3.03 3.03;}.cls-9{stroke-dasharray:2.95 2.95;}.cls-10{stroke-dasharray:3 3;}.cls-11{stroke-dasharray:2.97 2.97;}.cls-12{stroke-dasharray:3.06 3.06;}.cls-13{stroke-dasharray:3.01 3.01;}.cls-14{stroke-dasharray:2.93 2.93;}.cls-16{fill:#673ab7;}.cls-17{stroke:#fff;}.cls-19{fill:#757575;}.cls-20,.cls-25{fill:#b39ddb;}.cls-21{fill:#8c8c8c;}.cls-22{fill:#00e676;}.cls-23{fill:#b2b2b2;}.cls-24{fill:#878787;}.cls-25{stroke:#000;stroke-miterlimit:10;}.cls-26{opacity:0.15;}.cls-27{fill:#92e3a9;}.cls-28{fill:#e65100;}.cls-30{fill:#969696;}</style></defs><g id="Background_Simple" data-name="Background Simple"><path class="cls-1" d="M728.64,192.39S712.24,104.25,595,49.81s-171.53-.27-230.47,22.33-90.92-8.51-189.31-23.2S-8.45,180.29,19.43,294.35,108.8,449,243.26,475s214-59.63,309.1-44.07S760.61,359.16,728.64,192.39Z"/></g><g id="Plants"><path class="cls-2" d="M676.24,392.82a.36.36,0,0,1-.21-.44,45.79,45.79,0,0,1,32.9-30.21.35.35,0,0,1,.43.27.36.36,0,0,1-.26.43,45.07,45.07,0,0,0-32.38,29.73.37.37,0,0,1-.46.23Z"/><path class="cls-2" d="M688.32,383.18c-3.4-2.81-8.78,1.85-8.7,2-.38.66-.74,1.33-1.09,2,.74-.69,3.21-1.08,6.45-.36S691.66,385.74,688.32,383.18Z"/><path class="cls-2" d="M678.14,375.52c-3.43-2.64-5.11,3.09-2.87,5.76s3.24,4.88,3.2,5.89c.3-.7.62-1.4,1-2.08C679.26,385.07,681.3,378.14,678.14,375.52Z"/><path class="cls-2" d="M692.68,378.3c-2.88-3.33-8.92.3-8.87.47-.48.57-.94,1.16-1.4,1.75.85-.53,3.33-.48,6.4.79S695.54,381.39,692.68,378.3Z"/><path class="cls-2" d="M683.93,369c-2.94-3.17-5.52,2.15-3.75,5.14s2.39,5.33,2.18,6.31c.41-.63.84-1.25,1.28-1.86C683.48,378.59,686.6,372.16,683.93,369Z"/><path class="cls-2" d="M697.77,374.24c-2.28-3.76-8.83-1.21-8.8-1-.56.48-1.11,1-1.66,1.48.92-.38,3.35.1,6.16,1.87S700.08,377.76,697.77,374.24Z"/><path class="cls-2" d="M690.7,363.65c-2.37-3.62-5.79,1.19-4.55,4.43s1.48,5.64,1.12,6.56c.5-.55,1-1.08,1.56-1.6C688.67,373,692.81,367.17,690.7,363.65Z"/><path class="cls-2" d="M703.49,371.09c-1.63-4.1-8.52-2.67-8.52-2.5-.63.38-1.26.78-1.88,1.19,1-.22,3.28.65,5.75,2.87S705.16,374.94,703.49,371.09Z"/><path class="cls-2" d="M698.29,359.46c-1.74-4-5.93.21-5.24,3.61s.51,5.81,0,6.66c.59-.46,1.19-.9,1.81-1.32C694.71,368.32,699.77,363.29,698.29,359.46Z"/><path class="cls-2" d="M709.7,368.92c-.92-4.31-8-4-8-3.87-.69.26-1.38.55-2.06.85,1-.06,3.14,1.19,5.2,3.79S710.69,373,709.7,368.92Z"/><path class="cls-2" d="M706.54,356.58c-1-4.2-5.94-.78-5.83,2.7s-.48,5.82-1.13,6.56c.66-.34,1.33-.68,2-1C701.45,364.73,707.34,360.6,706.54,356.58Z"/><path class="cls-2" d="M705.7,363.41c-.1-.06,5.24-3.66,8.73-4.22s4.7,1.74,4.14,3.15-2.93,1.78-5,1.66C711.62,363.72,705.73,363.31,705.7,363.41Z"/><path class="cls-2" d="M705.61,363.63h0a.23.23,0,0,1-.12-.25,0,0,0,0,1,0,0c0-.06,0-.11.12-.14.86-.83,5.81-3.76,8.8-4.25a4,4,0,0,1,3.93,1.05,2.48,2.48,0,0,1,.48,2.43c-.74,1.92-4.17,1.87-5.2,1.81-1.94-.27-7.31-.64-7.82-.6A.2.2,0,0,1,705.61,363.63Zm11.32-4.07a4.31,4.31,0,0,0-2.46-.14c-2.74.45-6.62,2.78-8.05,3.74.51,0,1.29.07,2.52.16,1.57.12,3.64.29,4.71.44,1.94.12,4.21-.22,4.7-1.51a2,2,0,0,0-.4-1.94A2.56,2.56,0,0,0,716.93,359.56Z"/><path class="cls-2" d="M676.5,392.53a.37.37,0,0,1-.47-.15,45.79,45.79,0,0,1,.26-44.67.35.35,0,0,1,.49-.13.36.36,0,0,1,.13.49,45.07,45.07,0,0,0-.25,44,.35.35,0,0,1-.14.49Z"/><path class="cls-2" d="M677.65,377.12c-4.37.57-4.61,7.69-4.44,7.74q.33,1.09.72,2.16c0-1,1.4-3.08,4.14-5S681.8,376.41,677.65,377.12Z"/><path class="cls-2" d="M665.12,379.36c-4.27.72-1.22,5.85,2.26,6s5.79.95,6.49,1.67c-.3-.7-.59-1.41-.86-2.12C672.88,385,669.18,378.83,665.12,379.36Z"/><path class="cls-2" d="M677.05,370.6c-4.41-.16-5.85,6.74-5.69,6.82q.14,1.11.33,2.22c.18-1,1.91-2.77,4.93-4.15S681.26,370.61,677.05,370.6Z"/><path class="cls-2" d="M664.31,370.71c-4.33,0-2.18,5.51,1.21,6.25s5.54,1.87,6.11,2.69c-.18-.73-.35-1.46-.49-2.2C671,377.54,668.41,370.87,664.31,370.71Z"/><path class="cls-2" d="M677.54,364.11c-4.31-.89-6.89,5.64-6.75,5.74,0,.74,0,1.48,0,2.22.34-.93,2.34-2.39,5.55-3.24S681.69,364.82,677.54,364.11Z"/><path class="cls-2" d="M665,362.08c-4.27-.72-3.08,5.06.15,6.35s5.14,2.75,5.56,3.65c0-.75-.09-1.49-.11-2.24C670.42,369.91,669,362.93,665,362.08Z"/><path class="cls-2" d="M679.11,357.77c-4.1-1.59-7.74,4.43-7.61,4.54q-.24,1.1-.42,2.19c.5-.86,2.71-2,6-2.26S683.08,359.17,679.11,357.77Z"/><path class="cls-2" d="M667.06,353.67c-4.09-1.43-3.88,4.49-.92,6.3s4.61,3.57,4.88,4.52c.07-.74.16-1.48.26-2.21C671.12,362.33,670.87,355.19,667.06,353.67Z"/><path class="cls-2" d="M681.75,351.75c-3.78-2.26-8.41,3.11-8.29,3.24-.28.69-.54,1.39-.78,2.09.63-.76,3-1.48,6.32-1.23S685.43,353.8,681.75,351.75Z"/><path class="cls-2" d="M670.56,345.67c-3.79-2.1-4.61,3.82-2,6.1s3.94,4.31,4,5.3c.19-.72.4-1.44.63-2.15C673.07,354.94,674.06,347.82,670.56,345.67Z"/><path class="cls-2" d="M675,350.93c-.12,0,.89-6.33,2.84-9.27s4.48-2.26,5.13-.9-.69,3.37-2.16,4.77S674.94,350.84,675,350.93Z"/><path class="cls-2" d="M675.1,351.15h0a.25.25,0,0,1-.27-.09v0a.16.16,0,0,1,0-.19c0-1.19,1.19-6.81,2.87-9.34a4,4,0,0,1,3.45-2.16,2.46,2.46,0,0,1,2.1,1.3c.91,1.85-1.46,4.33-2.21,5-1.52,1.24-5.44,4.92-5.76,5.32A.3.3,0,0,1,675.1,351.15Zm4.72-11.07a4.21,4.21,0,0,0-1.77,1.7c-1.55,2.32-2.47,6.75-2.74,8.45.36-.36.93-.9,1.83-1.73,1.15-1.08,2.69-2.47,3.52-3.16,1.41-1.34,2.71-3.23,2.09-4.47a2,2,0,0,0-1.69-1A2.67,2.67,0,0,0,679.82,340.08Z"/><path class="cls-2" d="M80.89,392.83a.3.3,0,0,0,.17-.37,37.44,37.44,0,0,0-26.89-24.69.3.3,0,0,0-.36.22.28.28,0,0,0,.22.35A36.84,36.84,0,0,1,80.5,392.65a.29.29,0,0,0,.37.18Z"/><path class="cls-2" d="M71,384.94c2.77-2.29,7.17,1.52,7.11,1.65.31.54.6,1.08.89,1.64-.61-.57-2.63-.89-5.28-.29S68.29,387,71,384.94Z"/><path class="cls-2" d="M79.34,378.68c2.8-2.15,4.17,2.53,2.34,4.71s-2.65,4-2.61,4.82c-.25-.58-.51-1.14-.79-1.7C78.42,386.49,76.76,380.82,79.34,378.68Z"/><path class="cls-2" d="M67.45,381c2.36-2.73,7.3.24,7.25.38.39.47.77.94,1.14,1.43-.69-.44-2.72-.39-5.22.65S65.11,383.48,67.45,381Z"/><path class="cls-2" d="M74.6,373.39c2.41-2.6,4.52,1.76,3.07,4.2s-2,4.36-1.78,5.15c-.34-.51-.69-1-1-1.51C75,381.19,72.42,375.94,74.6,373.39Z"/><path class="cls-2" d="M63.29,377.64c1.87-3.08,7.21-1,7.19-.85.46.39.91.79,1.36,1.21-.75-.31-2.74.08-5,1.53S61.4,380.52,63.29,377.64Z"/><path class="cls-2" d="M69.07,369c1.94-3,4.74,1,3.72,3.62s-1.21,4.61-.92,5.36c-.41-.44-.83-.88-1.27-1.3C70.73,376.6,67.35,371.86,69.07,369Z"/><path class="cls-2" d="M58.62,375.06c1.33-3.35,7-2.18,7-2,.52.31,1,.63,1.54,1-.8-.18-2.69.53-4.71,2.35S57.25,378.21,58.62,375.06Z"/><path class="cls-2" d="M62.87,365.55c1.42-3.24,4.84.18,4.28,3s-.42,4.75,0,5.44c-.49-.37-1-.73-1.48-1.08C65.79,372.8,61.66,368.68,62.87,365.55Z"/><path class="cls-2" d="M53.54,373.29c.75-3.53,6.55-3.31,6.56-3.17.57.22,1.13.45,1.69.7-.82-.05-2.57,1-4.26,3.1S52.72,376.63,53.54,373.29Z"/><path class="cls-2" d="M56.12,363.2c.86-3.44,4.86-.63,4.77,2.2s.39,4.76.92,5.37c-.54-.28-1.09-.55-1.64-.81C60.28,369.87,55.47,366.49,56.12,363.2Z"/><path class="cls-2" d="M56.81,368.79c.08-.05-4.29-3-7.14-3.46s-3.84,1.43-3.38,2.58,2.39,1.46,4.05,1.36S56.79,368.7,56.81,368.79Z"/><path class="cls-2" d="M56.88,369h0a.2.2,0,0,0,.09-.21v0a.17.17,0,0,0-.1-.12,21,21,0,0,0-7.2-3.47,3.22,3.22,0,0,0-3.21.86,2,2,0,0,0-.39,2c.6,1.57,3.41,1.53,4.25,1.48,1.59-.22,6-.52,6.39-.49A.17.17,0,0,0,56.88,369Zm-9.25-3.33a3.4,3.4,0,0,1,2-.11c2.25.36,5.42,2.27,6.59,3.05l-2.06.13c-1.29.1-3,.24-3.85.36-1.58.1-3.44-.18-3.84-1.23a1.61,1.61,0,0,1,.32-1.59A2.09,2.09,0,0,1,47.63,365.64Z"/><path class="cls-2" d="M80.68,392.59a.3.3,0,0,0,.38-.13A37.45,37.45,0,0,0,80.85,356a.29.29,0,0,0-.4-.11.3.3,0,0,0-.11.41,36.82,36.82,0,0,1,.2,35.93.29.29,0,0,0,.12.4Z"/><path class="cls-2" d="M79.73,380c3.58.47,3.78,6.29,3.63,6.33-.18.59-.37,1.18-.59,1.77,0-.83-1.14-2.53-3.37-4.07S76.34,379.41,79.73,380Z"/><path class="cls-2" d="M90,381.82c3.49.59,1,4.78-1.85,4.93s-4.73.77-5.31,1.36c.25-.57.49-1.15.71-1.73C83.64,386.47,86.66,381.39,90,381.82Z"/><path class="cls-2" d="M80.23,374.66c3.6-.13,4.78,5.51,4.65,5.57-.07.61-.16,1.21-.27,1.82-.15-.81-1.56-2.27-4-3.39S76.79,374.67,80.23,374.66Z"/><path class="cls-2" d="M90.64,374.75c3.54,0,1.79,4.5-1,5.11s-4.52,1.53-5,2.2c.15-.6.28-1.2.4-1.8C85.18,380.34,87.29,374.88,90.64,374.75Z"/><path class="cls-2" d="M79.83,369.35c3.52-.72,5.63,4.62,5.51,4.69,0,.61,0,1.22,0,1.83-.28-.77-1.92-2-4.54-2.65S76.44,369.93,79.83,369.35Z"/><path class="cls-2" d="M90.11,367.7c3.48-.59,2.51,4.13-.13,5.18s-4.2,2.26-4.55,3q.07-.92.09-1.83C85.65,374.1,86.82,368.4,90.11,367.7Z"/><path class="cls-2" d="M78.54,364.18c3.36-1.31,6.33,3.62,6.23,3.71.12.59.24,1.19.34,1.78-.41-.7-2.22-1.6-4.92-1.84S75.3,365.32,78.54,364.18Z"/><path class="cls-2" d="M88.4,360.82c3.34-1.16,3.17,3.67.75,5.15s-3.77,2.92-4,3.7c-.06-.61-.13-1.21-.22-1.81C85.08,367.9,85.28,362.07,88.4,360.82Z"/><path class="cls-2" d="M76.38,359.25c3.1-1.85,6.88,2.55,6.78,2.65.23.57.44,1.14.64,1.71-.52-.62-2.46-1.21-5.16-1S73.38,360.92,76.38,359.25Z"/><path class="cls-2" d="M85.53,354.28c3.1-1.71,3.77,3.12,1.63,5s-3.22,3.53-3.31,4.33c-.16-.59-.33-1.18-.52-1.76C83.48,361.86,82.67,356,85.53,354.28Z"/><path class="cls-2" d="M81.91,358.58c.09,0-.73-5.17-2.33-7.58s-3.66-1.85-4.19-.73.56,2.75,1.76,3.9S82,358.51,81.91,358.58Z"/><path class="cls-2" d="M81.82,358.76h0a.21.21,0,0,0,.22-.07v0a.13.13,0,0,0,0-.15,20.74,20.74,0,0,0-2.35-7.64,3.23,3.23,0,0,0-2.81-1.77,2,2,0,0,0-1.72,1.07c-.75,1.51,1.19,3.54,1.8,4.12,1.25,1,4.46,4,4.71,4.35A.24.24,0,0,0,81.82,358.76Zm-3.86-9a3.44,3.44,0,0,1,1.45,1.39c1.26,1.89,2,5.51,2.24,6.9-.29-.29-.76-.73-1.49-1.42-1-.88-2.2-2-2.89-2.57-1.14-1.1-2.21-2.65-1.71-3.66a1.63,1.63,0,0,1,1.39-.85A2.14,2.14,0,0,1,78,349.72Z"/></g><g id="Floor"><line class="cls-3" x1="719.74" y1="392.85" x2="35.92" y2="392.85"/></g><g id="Map"><rect class="cls-4" x="164.13" y="32.96" width="428.91" height="248.43" rx="39.9"/><path class="cls-5" d="M553.26,38.82H203.52a35.07,35.07,0,0,0-35.07,35.07v61h0v46.71h0v58.64a35.08,35.08,0,0,0,35.07,35.08H553.26a35.08,35.08,0,0,0,35.08-35.08V73.89A35.08,35.08,0,0,0,553.26,38.82Z"/><path class="cls-4" d="M424.61,130.3H314V79.49a2.31,2.31,0,0,0-1.35-2.09L228.24,38.82H217.19L309.35,81V130.3H168.44v4.6H225.1c-4.53,45.88,17.11,72.75,36.28,87.27a123.64,123.64,0,0,0,40.73,20l-21.05,33.14h5.45L324.2,216v0h67.24l-10.82,59.32h4.67L410.91,134.9h12.6L535.68,275.32h5.89l-50.73-63.5,65.48-48.41a2.29,2.29,0,0,0,.94-1.85,2.78,2.78,0,0,0-.07-.57l-19.55-76.3h50.7v-4.6H493.16a2.31,2.31,0,0,0-2.05,1.26l-8.67,17.14L450.49,69.2l11.69-30.38h-4.93L445.64,69a2.29,2.29,0,0,0,.59,2.52l34.06,31.22L450.6,161.44l-24.19-30.28A2.33,2.33,0,0,0,424.61,130.3Zm70-45.61H532.9l19.45,75.94L488,208.22l-34.21-42.83ZM406.23,134.9l-14,76.5H327.09l48.58-76.5Zm-36,0L304.7,238.1a119.81,119.81,0,0,1-40.55-19.59c-26.5-20.08-38.08-48.2-34.43-83.61Z"/><polygon class="cls-6" points="377.3 38.81 377.3 45.7 420.76 63.08 420.76 97.83 378.26 79.49 378.26 106.52 336.75 106.52 336.75 65.97 284.03 38.81 377.3 38.81"/><rect class="cls-6" x="206.18" y="234.83" width="34.48" height="28.73" transform="translate(-25.78 472.61) rotate(-90)"/><rect class="cls-6" x="206.98" y="203.45" width="24.83" height="20.69" transform="translate(5.6 433.19) rotate(-90)"/><path class="cls-6" d="M300.56,227.72l55.11-85.33H240.12S234.2,203.42,300.56,227.72Z"/><rect class="cls-6" x="207.71" y="179.27" width="16.09" height="13.41" transform="translate(29.78 401.73) rotate(-90)"/><polygon class="cls-6" points="479.15 148.05 500.99 179.08 533.17 161.84 529.72 99.78 499.84 96.33 489.49 120.47 505.58 130.81 499.84 141.15 482.6 131.96 479.15 148.05"/><polygon class="cls-6" points="414.32 247.49 476.41 247.49 490.57 275.33 413.01 275.33 414.32 247.49"/><polygon class="cls-6" points="452.85 201.15 416.5 201.15 414.69 239.77 472.49 239.77 452.85 201.15"/><polygon class="cls-6" points="416.77 195.36 449.91 195.36 438.13 172.18 417.85 172.18 416.77 195.36"/></g><g id="Location_2" data-name="Location 2"><line class="cls-7" x1="228.84" y1="41.03" x2="230.2" y2="41.66"/><line class="cls-8" x1="232.95" y1="42.93" x2="308.67" y2="77.95"/><polyline class="cls-7" points="310.05 78.58 311.41 79.21 311.41 80.71"/><line class="cls-9" x1="311.41" y1="83.66" x2="311.41" y2="129.39"/><polyline class="cls-7" points="311.41 130.86 311.41 132.36 309.91 132.36"/><line class="cls-10" x1="306.91" y1="132.36" x2="230.46" y2="132.36"/><path class="cls-7" d="M229,132.36h-1.5s-.11.51-.28,1.47"/><path class="cls-11" d="M226.74,136.76c-1.56,12.12-3.06,46.91,25.15,74.56,19.58,19.19,43.31,26.51,51.45,28.57"/><path class="cls-7" d="M304.78,240.24c1,.22,1.46.32,1.46.32l.81-1.27"/><line class="cls-12" x1="308.69" y1="236.71" x2="373.42" y2="134.75"/><polyline class="cls-7" points="374.24 133.46 375.05 132.19 376.55 132.19"/><line class="cls-13" x1="379.56" y1="132.19" x2="420.2" y2="132.19"/><polyline class="cls-7" points="421.71 132.19 423.21 132.19 424.15 133.36"/><line class="cls-14" x1="425.98" y1="135.65" x2="494.75" y2="221.53"/><line class="cls-7" x1="495.67" y1="222.68" x2="496.61" y2="223.85"/><path class="cls-15" d="M229.14,137.34l-11.81,8.59-10.77-8.33h0A19.14,19.14,0,1,1,236.76,122,18.76,18.76,0,0,1,229.14,137.34Z"/><path class="cls-16" d="M200.83,121.86A16.84,16.84,0,1,0,217.66,105,16.82,16.82,0,0,0,200.83,121.86Z"/><path class="cls-17" d="M217.66,138.69a16.76,16.76,0,0,0,10.89-4,11.22,11.22,0,0,0-22.29-.46A16.79,16.79,0,0,0,217.66,138.69Z"/><circle class="cls-17" cx="217.38" cy="116.95" r="7.42" transform="translate(67.11 312.79) rotate(-80.78)"/><path class="cls-15" d="M364.86,187.19l-11.81,8.59-10.77-8.34h0a19.14,19.14,0,1,1,30.21-15.61A18.76,18.76,0,0,1,364.86,187.19Z"/><path class="cls-16" d="M336.55,171.7a16.83,16.83,0,1,0,16.83-16.83A16.75,16.75,0,0,0,336.55,171.7Z"/><path class="cls-17" d="M353.38,188.54a16.78,16.78,0,0,0,10.89-4,11.22,11.22,0,0,0-22.29-.46A16.79,16.79,0,0,0,353.38,188.54Z"/><circle class="cls-17" cx="353.09" cy="166.8" r="7.42"/><path class="cls-18" d="M450,181.74a8,8,0,0,0-2,3c0,.46,5.55,8.1,6.33,9a32.09,32.09,0,0,0,2.88,2.72L472.47,215c-.5.22-1.76.78-2,.91s.39.7,1.19.78a6.87,6.87,0,0,0,2-.26l9.06,10.56a9,9,0,0,0,5,.17,30.74,30.74,0,0,0,8.95-6.07c3.07-2.9,4-3.77,4-3.77a5,5,0,0,0,.75-.89c.12-.29,1.2-5,.69-6.12a2.79,2.79,0,0,0-1-1.31l-7.33-9,0,0a10,10,0,0,0,.85-2c.05-.5-.43-1.31-.65-1.13s-1.2,1.5-1.41,1.78l-15.57-19.14s-1.9-2.87-3.12-4.36-5.4-6-6.24-6.23a2.06,2.06,0,0,0-1.7.29c-.17.14-5.42,3.53-7.21,4.83A114.44,114.44,0,0,0,450,181.74Z"/><path class="cls-4" d="M490.12,199.12l1.17,0-8.65-10.63-2.76.8S488.32,198.38,490.12,199.12Z"/><path class="cls-4" d="M478.42,187.59l2.44-1.18-9.29-10.29a27.85,27.85,0,0,0,1.1,4.37Z"/><path class="cls-4" d="M453.55,186.34a10.28,10.28,0,0,1,2.44-3.21c1.66-1.46,9.34-8,10.12-8.24a8.19,8.19,0,0,1,2.5-.12,12.33,12.33,0,0,0-1.76-3.26,2.39,2.39,0,0,0-2.39-.44c-.32.18-7,5.05-8.77,6.76a67.14,67.14,0,0,0-4.9,5,3.61,3.61,0,0,0,.62,2.44A10.11,10.11,0,0,0,453.55,186.34Z"/><path class="cls-4" d="M454.68,189.85s2.95,1.45,3.42,1.8,6.39,7.31,6.39,7.31l-1.78,2.11-6-7.58Z"/><path class="cls-4" d="M464.45,203l1.4-2.35s3.36,4.54,4.1,5.77l3.66,6.14-.28,1.34Z"/><path class="cls-4" d="M471.61,207.05s9.66-6.56,13.14-11.09l8.72,7.89a9.89,9.89,0,0,1,1.11,1.58c0,.26,0,.91,0,.91s-2.2,5-5.22,7.35a36.63,36.63,0,0,1-8.67,4.74,3.76,3.76,0,0,1-1.5-.25l-1.39-.79Z"/><path class="cls-4" d="M497.25,207.21s1.85,4.39,1.93,6.17a9.07,9.07,0,0,1-.22,2.77,7.19,7.19,0,0,0,1.53-2.64,5.82,5.82,0,0,0-.29-2.82A30.14,30.14,0,0,0,497.25,207.21Z"/><path class="cls-4" d="M480.22,221.22a40,40,0,0,0,4.93,3.06,12.15,12.15,0,0,0,3.2.42,11.45,11.45,0,0,1-2.43,1,10.61,10.61,0,0,1-3.43-1.15A14.17,14.17,0,0,1,480.22,221.22Z"/></g><g id="Characters_2" data-name="Characters 2"><path class="cls-19" d="M340.74,282s-9.61,24.52-11.89,32.29S325.64,334,325.64,334L399,341.39s12.62-3.3,11.7-10.16-9.14-19.62-20.57-30.63-28.8-20.12-34.29-20.12A127.42,127.42,0,0,0,340.74,282Z"/><polygon class="cls-18" points="597.87 308.25 602.19 327.9 585.89 331.25 597.87 308.25"/><path class="cls-20" d="M647.11,329.42c-3.16-8.95-7.9-9.48-7.9-9.48l-13.69-35.29s-15.28,2.1-21.6,7.37-21.07,39-21.07,39l11.59,73.22s47.93-10,49.51-11.06,3.16-11.06,3.69-17.38S650.27,338.38,647.11,329.42Zm-58.34-1.28s12.46-26.84,15.33-30.67a22.27,22.27,0,0,1,7.67-6l9.91-2.27,10,32Z"/><path class="cls-18" d="M588.29,330.29l13.9-2.39s5.51-10.55,7.18-12a8.46,8.46,0,0,1,8.15-1.92c4.07,1,12.7,5.75,12.22,8.86s-1.2,4.08-5.75,4.8-16.53.72-16.53.72-3.12,5-3.84,6-12.46,4.8-12.46,4.8S589.73,335.32,588.29,330.29Z"/><path class="cls-15" d="M541.17,437.43S538.32,440,537,441s-3.59,3-5.84,3.75-3.45,1.2-3.3,2.4.15,2.4.9,2.55,27.73,0,27.73,0a7.18,7.18,0,0,0,.59-3.9,15.88,15.88,0,0,0-1-4.8s-6.9-1.94-9.9-3.59S541.17,437.43,541.17,437.43Z"/><path class="cls-15" d="M556.9,448.37H528c.1.7.27,1.25.76,1.35.75.15,27.73,0,27.73,0A4.66,4.66,0,0,0,556.9,448.37Z"/><path class="cls-21" d="M532.33,335.22a96.43,96.43,0,0,0,0,25.63c1.95,13,4,22.33,4,22.33s3,13,3.3,17.23,3.15,26.38,3,26.83a8.5,8.5,0,0,0-.45,2.24c0,.75-2,1.8-1.65,2.7a46.73,46.73,0,0,1,.6,5.25s3.45-.6,4.94,0,8.25,3,8.25,3l1.65.6a4.73,4.73,0,0,0,1.79-3.44c0-2.1-2.69-4.5-2.69-4.5s1.79-.75,1.94-1.5-.74-3.44-.74-3.89-.3-4.95-.3-5.85.15-12.29.15-13.64-1.35-22-1.35-22l-1.5-15s3.59,16.93,5.09,22.33,5.85,28,6,28.77a61,61,0,0,1,.6,7c-.15.45-1.8,1.5-1.65,2.1s1.2,8.1,1.2,8.1l10.79.89a37.44,37.44,0,0,0,1.8-3.89c.6-1.65-.45-3.15-.45-3.75s.9-.45.6-2.85-.6-4.34-.6-4.34-.75-1.2-.9-5.4,2.24-15.73.6-22.33-3.6-12.13-3.75-19.33-.15-20.68-.75-24.27-1.56-14.85-1.56-14.85l-.39-1.64Z"/><polyline class="cls-3" points="545.22 355.9 550.91 358.6 552.86 369.54"/><path class="cls-15" d="M565.75,437.28a31.8,31.8,0,0,1-2.1,5.54c-1,1.8-2.7,2.85-3.15,3.9a8.25,8.25,0,0,0-.3,3h16s1.2-1.5,1.2-5.1-1.35-5.39-2.55-7.49S569.64,433.53,565.75,437.28Z"/><path class="cls-15" d="M577.09,447.68l-.25-.06H560.27a11,11,0,0,0-.07,2.1h16A6.1,6.1,0,0,0,577.09,447.68Z"/><path class="cls-22" d="M542.63,270.8a29.76,29.76,0,0,1-5.32,4.34c-2.34,1.29-6.22,2.47-6.93,3.88s-1.52,11.16-.47,16.21a68.76,68.76,0,0,0,2.35,8.58l.83,18.68-1.3,14.34s14.22,1.88,23.27,2.93a49.71,49.71,0,0,0,15.27-.35s.47-8.58.59-13,.35-25.5.35-25.5l7.17,12s5,3.22,13.07-2c2.28-1.48-6.48-10.87-7.07-13.8s-4.36-9.24-4.36-9.24-3.05-9.16-5.4-11.51-5.52-2.94-8.93-3.41a49.64,49.64,0,0,1-9-2.79Z"/><path class="cls-3" d="M583.77,300.43s-3.71.51-4.72,6.9"/><path class="cls-3" d="M576.7,303s2.52-2.53,5.38-2.53"/><path class="cls-15" d="M532.64,247.5s.3,10.18.69,11.85,3.13,5.09,4.31,6.65a6.12,6.12,0,0,0,3.91,2c.29,0,1.08,1.18,1.08,2.84s-.69,2-.59,6.75a70.19,70.19,0,0,0,.78,8.91,49,49,0,0,0,7.74-7.14c4.89-5.29,6.16-9.2,6.16-9.2a11.3,11.3,0,0,1-2.84-4.21c-.68-2.26-.58-7.93-.58-7.93s3.52-2.74,3.72-4.31-1.28-4.5-1.28-4.5-1.66-5.88-3.52-8.81-2.15-4.41-8.32-2.74-8.32,2-10.28,3.52a5.68,5.68,0,0,0-2.25,3.23Z"/><path class="cls-18" d="M541.55,268a23.08,23.08,0,0,0,2.94-.49c1.07-.29,2.54-.88,2.54-.88l-4.4,4.21Z"/><path class="cls-3" d="M536.21,258.64s.69,1.08,1.67.69,1.53-.67,1.53-.67"/><path class="cls-3" d="M538.91,261.5a6.15,6.15,0,0,0,5.58-2.45"/><path class="cls-3" d="M540.18,250.93s3.13-.88,4.8,0"/><path class="cls-3" d="M536.07,251.32s-1.66-1.08-2.64.2"/><path class="cls-2" d="M535.13,253.68c.07.65-.14,1.21-.49,1.25s-.68-.45-.76-1.1.14-1.2.48-1.24S535.05,253,535.13,253.68Z"/><path class="cls-2" d="M542.12,253.41c.08.65-.14,1.2-.48,1.24s-.69-.45-.76-1.09.13-1.21.48-1.25S542,252.76,542.12,253.41Z"/><path class="cls-18" d="M546.84,241.44s-3.33,2.54-4.41,2.74-4.89-1.08-6.26-1.18-3.92,2-3.92,2l.39,2.54s-3.72-.88-4.5-2.35,1.86-3.42,1.76-3.91-1.47-2.35-.49-2.94a50.52,50.52,0,0,1,5.29-2s2.25-4.7,3.82-4.8a23.86,23.86,0,0,1,4.5.49,4.6,4.6,0,0,1,3.43-1.18c1.86.3,4.6,3.72,4.6,3.72s4.11-.39,4.89,1.37,1.57,4.11,1,6a52.92,52.92,0,0,0-1.18,5.78v1.47a6.15,6.15,0,0,0-2.44,1c-.79.68-.69,1.27-1.28,1.76s-.88.49-1.27.29-.58-.78-.78-2-.39-1.46-1.18-1.76a6.89,6.89,0,0,1-2.64-1.76c-.78-.88-1.76-1.66-1.17-2.45S546.84,241.44,546.84,241.44Z"/><polyline class="cls-3" points="566.92 294.76 571.27 300.87 563.99 298.4"/><path class="cls-23" d="M372,337.87c-.37-1.17,11.62.68,11.62.68s3.8-16.75,2.74-18.55-10.85-5.25-10.85-5.25l-22.76-1.2s-9.8,4.14-9.95,5.2c-.08.56-6.47,8.47-9.19,14.73Z"/><path class="cls-15" d="M357.43,312.67S356,314.1,356,318.14s2.62,9.28,2.62,9.28l9-4.76L378.17,328s1.05-10-2.71-13.29S359.57,309.82,357.43,312.67Z"/><path class="cls-15" d="M359,314.49a80.63,80.63,0,0,0,3.91,9.24c2,3.73,6.48,6.47,6.48,6.47s2.24-7.47,2.49-11.2a20.38,20.38,0,0,0-.25-5.73Z"/><path class="cls-15" d="M352.1,304.48s.84,8.22,1.67,8.94,5.24,1.07,5.24,1.07l9.54.6c.95-1.79,1.54-12-1.79-19.9s-7.51-9.18-8.34-7.75c0,0-4.89,6.67-4.65,8.1s.72,2.15.48,2.86-3.1,2-3.46,3.34S352.1,304.48,352.1,304.48Z"/><path class="cls-3" d="M354.37,306s2.62,0,3.93-1.19"/><path class="cls-3" d="M356.39,298.64a2.39,2.39,0,0,1,2.15.48"/><path class="cls-3" d="M355.56,296s2.26-2.14,3.57.72"/><path class="cls-18" d="M358.42,287.44s.95,8.1,3.69,13.94a53.88,53.88,0,0,0,4.05,7.63s0,4.65-1.43,6a4.29,4.29,0,0,1-3,1.19s-1.66,2.38,3.7,3.1,6.79-1.79,8.7-2a6.56,6.56,0,0,1,2.86.12,6.15,6.15,0,0,0,.11-3c-.35-1.55-.59-2.74-.59-2.74s3.57-4.17,3.45-8.94,1.32-7.5-1.31-13.1-16.44-6.56-19.06-6.68-3,.12-4.17,2-4.65,4.77-4.65,6.91,3.46,6.55,3.46,6.55l-.48-2.86S356.63,290.66,358.42,287.44Z"/><path class="cls-18" d="M445.36,421.48c-112.52-3.57-203.74,5-203.74,19.19,0,6,16.25,12,43.49,17.23-24.62.5-42.57,2-42.57,3.87,0,2.24,26.75,4.05,59.74,4.05,11.94,0,23.05-.24,32.38-.65,31.88,3.61,69.88,6.33,110.7,7.63,112.51,3.57,203.73-5,203.73-19.19S557.87,425.06,445.36,421.48Z"/><path class="cls-18" d="M246.78,403.15s2.48,5.37,4.24,7.2,33.74,9.74,33.74,9.74l103.56,22.67,12.55-1.35,43.86,1.41s8.75-21.41-.81-42.5S386.58,371,373.07,375.27s-45.14,18.13-67.88,10.55-40.87-22.41-48.44-20.43-11.21,14.17-11.21,19.44S246.78,403.15,246.78,403.15Z"/><path class="cls-18" d="M469.42,432.48C468.52,410.71,454,393,436.9,393H418.4l.33,7.8c-7.23,7.17-11.62,18.62-11.09,31.54s5.88,24.39,13.71,31.6l.32,7.89h18.5C457.23,471.86,470.32,454.25,469.42,432.48Z"/><ellipse class="cls-24" cx="420.04" cy="432.4" rx="30.81" ry="39.51" transform="translate(-45.03 48.85) rotate(-6.32)"/><path class="cls-15" d="M443.94,445.81h0c.3-1,.56-2,.79-3h0c.23-1,.41-2.06.56-3.13h0a41.79,41.79,0,0,0,.33-7.22,41,41,0,0,0-3.35-14.69l0-.12c-.43-1-.9-1.93-1.4-2.85l-.09-.17c-.51-.91-1-1.79-1.61-2.63l-.09-.14c-5-7.37-12.33-12.09-20.35-12.11-6.86,0-12.94,3.42-17.3,9h0q-.44.56-.84,1.14h0c-.27.39-.54.78-.8,1.19h0c-.25.4-.5.81-.74,1.22v0c-.24.41-.46.83-.67,1.25l0,.06c-.2.41-.41.83-.6,1.26l-.05.1c-.18.41-.36.83-.53,1.25l-.06.15c-.16.41-.32.83-.47,1.25,0,.07-.05.13-.07.19-.14.41-.27.82-.4,1.24a2.41,2.41,0,0,1-.08.25c-.12.4-.23.8-.33,1.21l-.09.31c-.1.39-.19.79-.27,1.19l-.09.37-.21,1.15c0,.15-.06.29-.08.43-.06.38-.11.75-.16,1.13,0,.16-.05.32-.07.49-.05.36-.08.74-.12,1.11,0,.18,0,.35-.05.53,0,.37-.05.74-.07,1.11l0,.55c0,.39,0,.79,0,1.18,0,.17,0,.34,0,.51,0,.56,0,1.13,0,1.7s.08,1.38.15,2.07c0,.16,0,.32,0,.49.06.58.13,1.17.21,1.74a2.51,2.51,0,0,0,0,.27,38.74,38.74,0,0,0,.86,4.21h0a36.05,36.05,0,0,0,9.58,16.95l.17.16c.54.51,1.09,1,1.66,1.46l.12.09a22.55,22.55,0,0,0,14.1,5.27,20.79,20.79,0,0,0,13.76-5.26h0A30,30,0,0,0,443.94,445.81Z"/><path class="cls-18" d="M442.69,433.46a34.23,34.23,0,0,0-2.15-10.71l-10.16,6.37a16,16,0,0,1,.78,4.31c0,.22,0,.43,0,.65L442.7,436C442.73,435.13,442.73,434.3,442.69,433.46Z"/><path class="cls-18" d="M424.68,421.78a10.59,10.59,0,0,1,2.88,2.33l7.16-11a22.06,22.06,0,0,0-8.62-5.94Z"/><path class="cls-18" d="M429.71,440.6a11.38,11.38,0,0,1-1.9,2.75l5.87,13.15a24.28,24.28,0,0,0,6.7-9.39Z"/><path class="cls-18" d="M412.41,426.59l-10.36-7.21a31.8,31.8,0,0,0-2.48,11.95l11.59.33A14.37,14.37,0,0,1,412.41,426.59Z"/><path class="cls-18" d="M415.94,422.2a8.49,8.49,0,0,1,2.77-1.27L417,406.31a18.42,18.42,0,0,0-9.72,5.2Z"/><path class="cls-18" d="M422.77,446.05a8,8,0,0,1-1.1.08,8.18,8.18,0,0,1-3.06-.6l-5.68,12.6a18.45,18.45,0,0,0,9.34,2.65,16.53,16.53,0,0,0,2.65-.21Z"/><path class="cls-18" d="M412.33,438.85l-11.46,2.56a31,31,0,0,0,5.59,11l7.36-10.85A14.62,14.62,0,0,1,412.33,438.85Z"/><path class="cls-18" d="M296,410.47c-.42-18.24-7.26-33.06-15.26-33.09H262.26l1.53,66.05h18.45C290.25,443.47,296.39,428.71,296,410.47Z"/><ellipse class="cls-24" cx="263.03" cy="410.4" rx="14.49" ry="33.04" transform="translate(-12.13 8.03) rotate(-1.71)"/><path class="cls-15" d="M274.24,421.64h0c.14-.81.27-1.65.37-2.51h0c.11-.86.2-1.73.26-2.62h0a59.78,59.78,0,0,0,.16-6,57.57,57.57,0,0,0-1.57-12.32l0-.1c-.21-.82-.43-1.61-.66-2.38l0-.15c-.23-.76-.48-1.49-.75-2.2,0,0,0-.08,0-.11-2.34-6.18-5.79-10.13-9.55-10.15-3.22,0-6.07,2.86-8.12,7.55h0q-.2.47-.39,1h0c-.13.32-.25.66-.37,1h0c-.12.34-.23.68-.34,1v0c-.11.34-.21.69-.31,1l0,0c-.1.35-.19.7-.28,1.05a.29.29,0,0,0,0,.09c-.09.34-.18.7-.26,1a.5.5,0,0,1,0,.12c-.08.35-.15.7-.22,1.05,0,.06,0,.11,0,.16l-.18,1a1.55,1.55,0,0,0,0,.21c-.06.33-.11.67-.16,1,0,.09,0,.18,0,.26,0,.33-.09.66-.13,1,0,.1,0,.2,0,.31,0,.32-.07.64-.1,1l0,.37c0,.31-.06.62-.08.94l0,.41-.06.93c0,.15,0,.29,0,.44,0,.31,0,.62,0,.93,0,.16,0,.31,0,.47,0,.33,0,.66,0,1v.42c0,.47,0,.95,0,1.43s0,1.15.07,1.73c0,.13,0,.27,0,.41,0,.49.06,1,.1,1.46a1.79,1.79,0,0,1,0,.23c.1,1.2.24,2.37.41,3.52h0a40.37,40.37,0,0,0,4.49,14.21l.08.13c.25.43.51.84.78,1.22a.35.35,0,0,1,.05.08c1.95,2.78,4.22,4.41,6.62,4.42s4.64-1.62,6.46-4.42h0A31.84,31.84,0,0,0,274.24,421.64Z"/><path class="cls-18" d="M647.53,419.86c-.9-21.76-15.46-39.45-32.52-39.49H596.52c-17.06,0-30.16,17.57-29.26,39.34s15.47,39.45,32.53,39.49h18.49C635.34,459.24,648.44,441.63,647.53,419.86Z"/><path class="cls-25" d="M654.88,405.91s-.69-13.78-2.41-18.6-6.89-12.05-6.89-12.05-5.17-12.06-13.78-19.64-22.73-15.15-26.17-16.87-7.92-2.76-14.47-7.23S544,298.8,531.24,291.22s-40.29-11.36-45.8-12.39-68.88-5.51-90.92-5.51-67.5,1-92.64,10.67c0,0-8.27,2.41-9.3,4.82s-1.72,4.14-1.72,4.14l-24.8,36.16s-8.95-.69-11.71,6.88-1.72,17.91-1.72,17.91-6.54,16.19-6.89,28.24a128.88,128.88,0,0,0,1,21s-1.73-22,3.44-28.93,15.84-1.72,20,10.68,9,35.47,9,35.47l109.17,22.39s-5.51-28.93,1.72-45.46,41-15.5,47.18,14.46,4.14,35.47,4.14,35.47,23.07,4.82,93.32,3.79,108.83-9.3,119.16-12c0,0,2.41-12.75,3.1-20.32A24.48,24.48,0,0,0,654.88,405.91ZM404.51,336.68a7,7,0,0,1-2.07,2.76c-2.76,2.75-10.33,0-10.33,0s-32.77-5.21-62.07-9.78c1.77-18.81,10.49-37,15.84-46.55,5.56.45,17.57,2,31.42,11.9C393.14,306.38,405.19,335,404.51,336.68Z"/><path class="cls-23" d="M342.75,318.75s-13.44,15.69-13.94,17.43.74,7.47,5.48,7.72,30.85-9.19,30.85-9.19l-16-2.14,1.31-3.86"/><line class="cls-3" x1="335.53" y1="331.45" x2="349.16" y2="332.57"/><path class="cls-26" d="M656.94,418.65a24.48,24.48,0,0,0-2.06-12.74s-.22-4.41-.73-9.11c-43.09,12.71-120.19,13.57-141.7,11.67-24.7-2.18-68.53-8.15-70.47-15.26s-18.89-23.24-30.51-27.6c-10-3.74-125.61-19.75-158.45-24.25a56.12,56.12,0,0,0-.39,12.54s-6.54,16.19-6.89,28.24a128.88,128.88,0,0,0,1,21s-1.73-22,3.44-28.93,15.84-1.72,20,10.68,9,35.47,9,35.47l109.17,22.39s-5.51-28.93,1.72-45.46,41-15.5,47.18,14.46,4.14,35.47,4.14,35.47,23.07,4.82,93.32,3.79,108.83-9.3,119.16-12C653.84,439,656.25,426.22,656.94,418.65Z"/><path class="cls-18" d="M384.11,331.75c1.47-7.59,6.37-21.8,6.37-21.8s8.16,11.55,11.87,19.64,0,11.13-3.37,11.8-16.52-3.7-16.52-3.7l1.65-5.94"/><path class="cls-19" d="M336.44,283.08a167.11,167.11,0,0,0-23.54,3c-7.92,1.72-10.68,2.06-12,3.44S286,307.75,281.22,319.81a4,4,0,0,0,3.78,3.1c1.13,0,15.6,2.18,33.55,5C321.55,317.19,327.59,298.36,336.44,283.08Z"/><path class="cls-3" d="M330.35,345.91l-9.8-1.77a2.5,2.5,0,0,0-1.67,3.16c.73,2.4,2,2.14,2,2.14l8.16,1.31a2.17,2.17,0,0,0,2.36-1.73C331.83,347.09,332.38,346.84,330.35,345.91Z"/><path class="cls-3" d="M280.82,337.37l-7.48-1.43a2,2,0,0,0-1.28,2.56c.56,1.95,1.55,1.74,1.55,1.74l6.22,1.06a1.65,1.65,0,0,0,1.8-1.4C282,338.33,282.37,338.13,280.82,337.37Z"/><path class="cls-3" d="M340.74,282s-14,26-16.42,47.53"/><path class="cls-3" d="M321.14,334s-6.37,10.78-6.62,14.46.49,47.77,1.72,55.86"/><path class="cls-3" d="M388.52,349.4s-5.39,17.88-5.64,31.36-.49,38.71-.49,38.71"/><path class="cls-3" d="M280.47,324.65s-11.52,10.53-12.5,14,.24,32.84.24,32.84"/><path class="cls-3" d="M282.67,404.77s1.72,4.9,5.39,6.13,92.86,18.37,92.86,18.37"/><path class="cls-18" d="M541,420.32s68.29.94,93.67-6.89c0,0-2.51,16.91-7.2,20.36s-38.86,7-55.46,7.52c-18.79.62-29.45-1.25-29.45-1.25Z"/><path class="cls-18" d="M528.82,377.71l6.89,14.1s38.54.94,42.92,1.25,9.09,2.51,14.1,0,26.63-5.32,29.14-5.32,5.64,2.19,5.64,2.19-5.64-14.1-7.84-15.35a9.33,9.33,0,0,0-5.32-.94C613.41,373.64,567.67,370.19,528.82,377.71Z"/><path class="cls-15" d="M456.19,349.57s-16.38-2.52-22.69-.32-3.15,10.72,7.57,18.59,19.53,15.44,30.56,16.7,29.93,5.36,30.88,1.89-2.52-16.07-15.13-25.2S456.19,349.57,456.19,349.57Z"/><path class="cls-15" d="M587.89,331.61l-3.14.95-15.2.43c-8,.24-18.6.53-30.31.84-16.15.43-34.41.88-50.9,1.23-25.21.53-46.31.8-49.48.33a32.46,32.46,0,0,1-17.19-7.73,41.09,41.09,0,0,1-9-11.49c-7.57-13.87-26.78-30.88-26.78-30.88,30.24-3.47,102.4-2.2,110.59-1.88a54.36,54.36,0,0,1,7.57.91c8.75,1.55,20.15,5,26.77,9.48,1.18.8,3.07,2.06,5.44,3.64,5.54,3.7,13.75,9.14,22,14.61l14.39,9.52Z"/><path class="cls-18" d="M530.86,293.8c1.18.8,3.07,2.06,5.44,3.64l-48,37.62c-25.21.53-46.31.8-49.48.33a32.46,32.46,0,0,1-17.19-7.73l82.42-43.34C512.84,285.87,524.24,289.31,530.86,293.8Z"/><path class="cls-18" d="M572.69,321.57,569.55,333c-8,.24-18.6.53-30.31.84l19.06-21.78Z"/><path class="cls-3" d="M520,368.28c1.92,2,3.77,4,5.53,6.18"/><path class="cls-3" d="M473.52,340.43s23.85,7,43.15,24.67"/><path class="cls-3" d="M626.26,373.9A55.82,55.82,0,0,1,631.69,389"/><path class="cls-3" d="M589.79,341.69s21.12,8.19,33.79,27.66"/><path class="cls-15" d="M492.42,426.45c0,3.65-3.52,6.62-7.87,6.62s-7.88-3-7.88-6.62,3.53-6.62,7.88-6.62S492.42,422.8,492.42,426.45Z"/><path class="cls-15" d="M655.56,415.7c-.67,3.15-2.79,5.37-4.75,4.95s-3-3.3-2.34-6.45,2.79-5.37,4.75-4.95S656.23,412.55,655.56,415.7Z"/><path class="cls-18" d="M387.14,337.88s-5.5-9.26-9-9.84-18.23-1.16-21.41.87-2.31,8.68-1.16,10.41,5.79,2.61,9.84,2.32,17.65.86,17.65.86,8.1,5.79,11,5.21,6.65-6.94,4.05-10.41S391.48,334.69,387.14,337.88Z"/><line class="cls-3" x1="387.14" y1="337.88" x2="396.68" y2="339.9"/><path class="cls-3" d="M301.88,284s-8.27,2.41-9.3,4.82-1.72,4.14-1.72,4.14l-24.8,36.16s-8.95-.69-11.71,6.88-1.72,17.91-1.72,17.91-6.54,16.19-6.89,28.24a128.88,128.88,0,0,0,1,21s-1.73-22,3.44-28.93,15.84-1.72,20,10.68,9,35.47,9,35.47l109.17,22.39s-5.51-28.93,1.72-45.46,41-15.5,47.18,14.46,4.14,35.47,4.14,35.47,23.07,4.82,93.32,3.79,108.83-9.3,119.16-12c0,0,2.41-12.75,3.1-20.32a24.48,24.48,0,0,0-2.06-12.74s-.69-13.78-2.41-18.6-6.89-12.05-6.89-12.05-5.17-12.06-13.78-19.64-22.73-15.15-26.17-16.87-7.92-2.76-14.47-7.23S544,298.8,531.24,291.22s-40.29-11.36-45.8-12.39-68.88-5.51-90.92-5.51S327,274.35,301.88,284Z"/><path class="cls-15" d="M619.4,346.73s-6.93,2.52-5,5,12.29,9.14,17,17.33,5.67,12.29,7.87,12.29,7-4.08,6.33-6.13S641.46,354.61,619.4,346.73Z"/><path class="cls-18" d="M272.71,409.86a57.52,57.52,0,0,0-1-9.54L267.07,406a27.07,27.07,0,0,1,.36,3.84v.58l5.29,1.67C272.73,411.36,272.73,410.62,272.71,409.86Z"/><path class="cls-18" d="M264.46,399.45a7.68,7.68,0,0,1,1.32,2.08l3.28-9.82a13.61,13.61,0,0,0-3.95-5.3Z"/><path class="cls-18" d="M266.76,416.24a13.42,13.42,0,0,1-.87,2.45l2.69,11.73a27.21,27.21,0,0,0,3.07-8.38Z"/><path class="cls-18" d="M258.83,403.74l-4.75-6.43A52.32,52.32,0,0,0,253,408l5.31.3A24.13,24.13,0,0,1,258.83,403.74Z"/><path class="cls-18" d="M260.45,399.83a3.41,3.41,0,0,1,1.27-1.13l-.78-13c-1.68.58-3.2,2.22-4.45,4.64Z"/><path class="cls-18" d="M263.58,421.1a2.16,2.16,0,0,1-.51.07,2.28,2.28,0,0,1-1.4-.54l-2.6,11.23a5.89,5.89,0,0,0,4.28,2.37,4.25,4.25,0,0,0,1.22-.19Z"/><path class="cls-18" d="M258.79,414.67,253.54,417a42.2,42.2,0,0,0,2.56,9.82l3.38-9.67A18.63,18.63,0,0,1,258.79,414.67Z"/><path class="cls-15" d="M247.56,312.68s58.14,3.25,63.25,5.38a11.52,11.52,0,0,1,6.39,7.24l-72.85-2.56Z"/><path class="cls-15" d="M290.06,284.05s-33.15,24.11-45.71,38.69l-12.79-2.55,35.46-34Z"/><path class="cls-20" d="M324.32,329.55S330.59,299,340.74,282c0,0-35.59-4.79-74.36,1.17C264.13,283.54,229,313,229,313s-20.51,17.5-20.88,20.87c0,0,12.72,44.29,59,74.53l50.28,8.13s-3.37-54.61-2.88-66.38C314.84,343,324.32,329.55,324.32,329.55Zm-84.24-11.07c-5.11-1.7,0-6.81,0-6.81l30.35-24.22c20.87-3.41,58.7.36,58.7.36-2.56,4.68-11.93,37.49-11.93,37.49S245.2,320.19,240.08,318.48Z"/><path class="cls-18" d="M223.89,330.55l-6.43-.56s-2.51.28-2.51,2.51a2.39,2.39,0,0,0,2,2.52l12.46,1.13s-.29-3.77,1.66-4.89Z"/><path class="cls-27" d="M215.25,335.76s2.05,2.67,4.1,2.67,9.83.82,9.83.82"/><polygon class="cls-18" points="621.67 289.21 624.15 289.02 634.62 320.81 631.65 321.19 621.67 289.21"/><path class="cls-15" d="M604.63,287.64s3.71-2,4.55-2,3.87,4,3.87,4-4.21,2.36-4.71,2.53S605,291,605,291a17.78,17.78,0,0,0-4.21,4.71c-1.34,2.52-6.9,11.78-6.9,11.78s-3,4.38-6.22,2.52-4.38-6.22-3-8.07S604.63,287.64,604.63,287.64Z"/><path class="cls-15" d="M601.77,292.35a4.39,4.39,0,0,0,2,1.35,38.33,38.33,0,0,0,3.87.17s3.2-.34.68-1.68a32.51,32.51,0,0,0-4.55-2"/></g><g id="Location_1" data-name="Location 1"><path class="cls-15" d="M141,211.5l-13.52,9.82-12.31-9.53h0a21.88,21.88,0,1,1,34.54-17.85A21.47,21.47,0,0,1,141,211.5Z"/><path class="cls-16" d="M108.66,193.79a19.25,19.25,0,1,0,19.25-19.25A19.22,19.22,0,0,0,108.66,193.79Z"/><path class="cls-17" d="M127.91,213a19.17,19.17,0,0,0,12.45-4.57,12.84,12.84,0,0,0-25.49-.53A19.17,19.17,0,0,0,127.91,213Z"/><circle class="cls-17" cx="127.58" cy="188.18" r="8.48" transform="translate(-89.5 255.75) rotate(-73.15)"/><path class="cls-15" d="M375.81,272.84l-13.52,9.83L350,273.14h0a21.88,21.88,0,1,1,34.54-17.85A21.44,21.44,0,0,1,375.81,272.84Z"/><path class="cls-16" d="M343.43,255.14a19.25,19.25,0,1,0,19.25-19.25A19.22,19.22,0,0,0,343.43,255.14Z"/><path class="cls-17" d="M362.68,274.38a19.22,19.22,0,0,0,12.45-4.56,12.84,12.84,0,0,0-25.49-.53A19.16,19.16,0,0,0,362.68,274.38Z"/><circle class="cls-17" cx="362.35" cy="249.53" r="8.48" transform="translate(35.99 544.57) rotate(-76.67)"/></g><g id="Character_1" data-name="Character 1"><ellipse class="cls-18" cx="132.17" cy="456.61" rx="50.52" ry="4.98"/><path class="cls-15" d="M159.81,429.86l5.2,16s7.69,1.75,9.57,1.52,8.81-1.64,9-.32-2,2.16-2.73,2.82a50.7,50.7,0,0,1-7.3,4.53c-1.82.79-7.37,2.42-9,3.19s-3.57,2.16-4.83-.37a24.79,24.79,0,0,1-2.05-7.41c-.2-1.7-8.55-15.24-8.55-15.24Z"/><path class="cls-28" d="M174.58,447.41a5.63,5.63,0,0,1-1.32-.05l.44,2.27s-10,3.66-15.07,4.92a18.14,18.14,0,0,0,1.06,2.71c1.26,2.53,3.2,1.15,4.83.37s7.18-2.4,9-3.19a50.7,50.7,0,0,0,7.3-4.53c.69-.66,2.89-1.5,2.73-2.82S176.47,447.18,174.58,447.41Z"/><path class="cls-15" d="M193.26,274.42s3.11-.65,2.78.07-2.52,1.23-2.52,1.23,2.39.06,1.94.58a3.38,3.38,0,0,1-1.75.65l-1,1s-1,.9-1.23,1.16-2.33,1.88-2.78,1a3.3,3.3,0,0,1,.45-3C189.56,276.82,193.26,274.42,193.26,274.42Z"/><path class="cls-15" d="M137.13,284.57l16.67,9.09,29.31-10.51s1.28-1.93,3.15-5,5.18-4.47,6.62-5.35,2.68-.48,2.27.41-3.1,1.71-3.65,2.33-3.3,4.38-3.3,4.38,4.94-2.46,5.77-2.52,1.3.55.13,1.3a23.17,23.17,0,0,0-3.57,2.46,12.7,12.7,0,0,1-2.14,2.25,16.52,16.52,0,0,1-2,1.16s-28.34,19-29.87,19.76a14.2,14.2,0,0,1-4.76.77l-15.34-6.29Z"/><path class="cls-28" d="M157.73,292.28l-3.93,1.38-16.67-9.09-.7,14.27,15.34,6.29a14.2,14.2,0,0,0,4.76-.77c.35-.18,2.33-1.37,5.16-3.1Z"/><path class="cls-15" d="M92.64,426.15l-4.93,11.71s-7,6.82-7,7.8A6.48,6.48,0,0,0,83.91,450c2,1,5.1,2.71,5.1,2.71s4.8,3.14,7.81,3.84,6.18,1.92,6.66.32S98.24,452,98.24,452s-2.59-5-3.07-6.48a17.43,17.43,0,0,1-.21-4.83l9-10.12Z"/><path class="cls-28" d="M98.24,452a14.12,14.12,0,0,1-3.28-.51c-1.37-.45-4.52-3.34-7.56-6.93a34.72,34.72,0,0,0-3.13-3.22c-1.77,1.85-3.57,3.85-3.52,4.35A6.48,6.48,0,0,0,83.91,450c2,1,5.1,2.71,5.1,2.71s4.8,3.14,7.81,3.84,6.18,1.92,6.66.32S98.24,452,98.24,452Z"/><polygon class="cls-15" points="107.62 352.9 107.56 389.01 89 425.38 105.75 435.37 125.83 397.09 130.7 370.21 107.62 352.9"/><path class="cls-15" d="M106.47,333.29s-4.23,13.84-3.46,16.92S127,400,127,400l18.7,38.3,20.77-6.15-17.69-50L135.7,351.36V334.83Z"/><polygon class="cls-15" points="135.54 266.07 133.67 270.99 128.83 268.46 129.4 263.18 135.54 266.07"/><path class="cls-28" d="M136.68,272.24s-2.9.87-2.6,3.7,4.8,13.71,5.9,19.5.17,7.11.36,9.65-1,26.2-.63,30.33-1.27,4.43-12.11,4.19-17-1.69-20.4-3.64-1.82-4.92-.62-7.31,6.19-33.66,8.79-41.57,3.07-10.85,7.32-13.7,4.82-2.31,5.11-3.53,1-3.05,1-3.05Z"/><path class="cls-3" d="M127.18,302.65a12.33,12.33,0,0,0,6.91,3.59"/><path class="cls-3" d="M125.67,313.37a18.35,18.35,0,0,0,1.2,1.42"/><path class="cls-3" d="M120.84,303.17a35.86,35.86,0,0,0,3.68,8.52"/><path class="cls-15" d="M145.76,243.9a9.51,9.51,0,0,1,.28,6.4c-1.12,3.3-1.41,4.9-.53,6.2s1.26,2.91-.17,3.7A5.73,5.73,0,0,1,143,261s-2.53,6.2-4.21,6.81-7.14-1.49-8.88-2.64-.33-13.4.88-15.49S145.76,243.9,145.76,243.9Z"/><path class="cls-3" d="M140.89,261c-1.88.09-2.67-2-2.67-2s-1.18,3.47.26,4S140.89,261,140.89,261Z"/><path class="cls-2" d="M143.83,254.1c-.17.84-.67,1.45-1.1,1.36s-.66-.84-.49-1.69.67-1.46,1.11-1.37S144,253.25,143.83,254.1Z"/><path class="cls-18" d="M150.12,238s.08,4.55-3.31,6.88-12.09,4.89-13.41,5.67a2.67,2.67,0,0,0-1.3,2.21,110.82,110.82,0,0,0-1.23,11.43c0,3.45,3.15,6.27,2,8.79s-4.78,2.68-7.11,2.73-1.66,3.39-5.76,5.51-7.38,1.11-9.57-2.09-1.13-4.82-3-5.5-5,.82-7.19-4.49-.2-9.3,1.4-10.35,7.67-.71,7.35-7.33,5.29-17.1,13.6-21.36,21.65,3.87,23.45,4.68S150.18,236.27,150.12,238Z"/><path class="cls-29" d="M142.15,326.08s-4.67-35.16-8.48-43.61S125.9,270,119.9,277.34s-8.82,50.55-8.82,50.55"/><path class="cls-28" d="M129.75,287.72s-13.9,32.45-16,34.53-10,6.45-12,1.32,14.78-43.09,18.51-46.92,10.83-2.28,11,4.52"/><path class="cls-15" d="M131,319a10.77,10.77,0,0,0,4.49-2.19,6.54,6.54,0,0,1,5.25-1.95c1.71.19,4.08.13,4.21,1.88a3.15,3.15,0,0,1-1.59,3c-.5.26-1,6.19-2.34,7s-6.55-.56-8.4-.92-13.56,1.52-19.47.87-11.24-.91-11.32-3.12,2.79-8.21,9.43-8.43S123.39,319,131,319Z"/><path class="cls-30" d="M142.15,326.08s-2.87,1.73-16.29,2-14.78-.19-14.78-.19-4,17.21-2.56,19.09c2.62,3.44,29.63,2.76,32.27.22S142.15,326.08,142.15,326.08Z"/><path class="cls-3" d="M142,251.26a2.08,2.08,0,0,1,2.63-.68"/></g></svg>