<svg xmlns="http://www.w3.org/2000/svg" viewBox="0 0 1280 800"><defs><style>.cls-1,.cls-3,.cls-8{fill:#263238;}.cls-1,.cls-10,.cls-11,.cls-2,.cls-3,.cls-4,.cls-5,.cls-6,.cls-7,.cls-9{stroke:#263238;stroke-width:2.48px;}.cls-1,.cls-10,.cls-11,.cls-2,.cls-7,.cls-9{stroke-linecap:round;stroke-linejoin:round;}.cls-2{fill:#787878;}.cls-3,.cls-4,.cls-5,.cls-6{stroke-miterlimit:10;}.cls-4{fill:#b2b2b2;}.cls-5,.cls-7{fill:none;}.cls-6,.cls-9{fill:#fff;}.cls-10{fill:#c1b6d9;}.cls-11{fill:#9c27b0;}</style></defs><g id="Characters"><rect class="cls-1" x="590.52" y="166.69" width="97.7" height="38.08" rx="3.99"/><rect class="cls-1" x="631.03" y="148.23" width="9.53" height="28.85"/><path class="cls-1" d="M975.2,355.09,941,329.42,893.42,159l-79.24-9.47,34.28,123.33H447.71L482,149.53,402.75,159,354.44,331.91l-36.08,23.18ZM824,159l59.7,4.2L921.83,315l-56.08-42.13h-3Zm-411.43,4.2,59.7-4.2-41.8,122.7,1.43.48L373.1,319.92Z"/><path class="cls-2" d="M568,362.88l-5.88-81.18c-1.4-19.28-18-34.22-37.91-34.22h-77c-20,0-36.52,14.94-37.91,34.22l-5.89,81.18Z"/><path class="cls-2" d="M871.63,362.88l-5.88-81.18c-1.4-19.28-18-34.22-37.91-34.22h-77c-20,0-36.51,14.94-37.91,34.22L707,362.88Z"/><path class="cls-3" d="M466.2,187.52s-14.77-10.21-23.91-5.45-28.13,56.54-30.94,68.12,14.77,21.11,26.72,24.52,35.87-4.09,41.49-9.54S466.2,187.52,466.2,187.52Z"/><path class="cls-4" d="M566,365c-.9-2.74-1.44-4.45-1.44-4.45s-10.24-53.15-12.8-57.4-34.39-18.07-34.39-18.07l-55.24-2.84s-41.34,19.49-41.71,22c-.19,1.32-8.1,32.15-15.48,60.79Z"/><path class="cls-5" d="M436.34,325.26c3.24,9.09,5.44,15.48,6.78,23.71"/><path class="cls-5" d="M544.71,329c-1.77,5.84-6.21,13.6-4.89,19.85"/><path class="cls-3" d="M492.84,169.29s-32.88,8.84-42,26-9.74,20.93-4.56,29.19,18,23,29.83,28.89,49.63-2.65,49.63-2.65,11.57-5,15.22-13.86,11.87-21.23,6.39-34.5-29.83-31.55-37.44-33.61S492.84,169.29,492.84,169.29Z"/><path class="cls-6" d="M516.77,191.66s-16.4,9.78-24.81,15.48a83.61,83.61,0,0,1-18.5,9s-7.57,3.25-5.89,11.81S472.44,266,472.44,266l-5.71,12,24.39,26.06,19.34-24.43,2.1-12.63s17.66-10.59,18.08-13,5.47-38.28,5.05-41.95S516.77,191.66,516.77,191.66Z"/><path class="cls-7" d="M519.63,216.76s-.92,8-.92,9.14,7.31,7.37,4.57,9.73-8.22,3.84-8.22,3.84"/><path class="cls-7" d="M516,246.84s-3,3.24-9.74-3.54"/><path class="cls-1" d="M512.56,267s-6.94-.7-9.68-2.47-10.65-7.67-10.65-7.67l15.52,25.95,2.71-3.18Z"/><path class="cls-6" d="M476.7,223.84s-5.78-16.81-12.48-7.37,4,22.7,9.13,22.41"/><path class="cls-8" d="M507.15,223c0,2-1.16,3.54-2.59,3.54S502,224.91,502,223s1.16-3.54,2.59-3.54S507.15,221,507.15,223Z"/><path class="cls-8" d="M530,223c0,2-1.16,3.54-2.59,3.54s-2.59-1.58-2.59-3.54,1.16-3.54,2.59-3.54S530,221,530,223Z"/><path class="cls-7" d="M497.71,215.29a10.83,10.83,0,0,1,12.78-1.18"/><path class="cls-7" d="M522.37,213.52s8.22-3.25,10,2.95"/><polygon class="cls-6" points="466.65 268.95 487.97 295.2 473.35 310.53 456.91 281.93 466.65 268.95"/><polyline class="cls-1" points="398.14 167.78 497.33 361.85 470.65 361.85 390.73 173.71"/><polygon class="cls-6" points="487.97 295.2 491.12 304.06 483.7 300.5 487.97 295.2"/><polygon class="cls-6" points="495.58 290.77 505.93 310.53 521.76 284.58 511.1 276.32 495.58 290.77"/><polygon class="cls-6" points="495.58 290.77 491.12 304.06 498.62 296.96 495.58 290.77"/><path class="cls-9" d="M924.12,380.44c1.74-3.73,10.53-23.2,7.37-28.34-17.92-29.2-23.18-9.86-29.59-24.46C891.13,303.1,882,286,878.15,283.43c-7.48-4.95-56.7-14.11-56.7-14.11L761.2,267.8s-52,20.59-55.52,25.17a140.44,140.44,0,0,0-20.47,33.09c-.79,1.85-18.76,15.75-19.55,17.62-8.48,19.92-.61,33.74,1.39,36.76Z"/><path class="cls-7" d="M724.07,313.7c.59,20.12.59,39.35,1.46,59.2"/><line class="cls-7" x1="723.77" y1="301.59" x2="723.92" y2="307.63"/><path class="cls-7" d="M862.33,311.74l-3.6,46.44q-.57,7.4-1.15,14.8"/><line class="cls-7" x1="863.21" y1="300.46" x2="862.89" y2="304.56"/><path class="cls-10" d="M777.59,333.77c.6,10.73-.6,32.43-1.54,46.67h40.24c-1.93-16.93-5-44.32-5.68-50.33C809.67,321.28,797.4,296,797.4,296L805.26,286l-14.15-14.32L782,285.34l7.23,11.57S776.64,317,777.59,333.77Z"/><polygon class="cls-9" points="769.09 245.43 766.58 263.71 793.31 278.02 817.21 264.01 816.27 250.61 769.09 245.43"/><polygon class="cls-1" points="766.58 263.71 775.56 268.52 790.76 262.36 773.82 245.95 769.09 245.43 766.58 263.71"/><path class="cls-9" d="M767.22,173.14s-8.89,6.15-9.53,15.07,4.13,50.13,9.21,59.36,11.12,16.61,23.5,18.76,27-9.84,28.58-15.38,7.62-34.14,7.62-44.9,1.27-23.07-8.89-32S791,163.3,783.1,164.84,767.22,173.14,767.22,173.14Z"/><path class="cls-1" d="M817.71,174.07c-10.16-8.92-26.68-10.77-34.61-9.23s-15.88,8.3-15.88,8.3-8.89,6.15-9.53,15.07c-.31,4.35.67,16.35,2.33,28.59.65.11,1.48-.18,1.48-2.45,0-3.69-2.22-5.84.64-8.91s7.3-7.39,9.84-11.38,1.91-10.15,1.91-10.15,5.71,4.61,17.14,5.84,23.82,1.23,25.72,1.54-.63,2.15,2.23,5.84,4.13,5.54,4.44,7.38c.28,1.59,1.73,10.5,2.13,12.92a91.27,91.27,0,0,0,1.05-11.38C826.6,195.29,827.87,183,817.71,174.07Z"/><path class="cls-7" d="M786.59,231s5.4,3.38,8.89,2.77a20.71,20.71,0,0,0,7-3.08"/><path class="cls-7" d="M802.78,207.9s7.31-5.23,14.61.61"/><path class="cls-7" d="M787.54,208.51s-8.57-5.53-14.6,1.23"/><path class="cls-8" d="M782.78,214.35c0,1.53-.78,2.77-1.75,2.77s-1.74-1.24-1.74-2.77.78-2.76,1.74-2.76S782.78,212.83,782.78,214.35Z"/><path class="cls-8" d="M809.29,214.35c0,1.53-.78,2.77-1.74,2.77s-1.75-1.24-1.75-2.77.78-2.76,1.75-2.76S809.29,212.83,809.29,214.35Z"/><path class="cls-7" d="M780.87,241.11s12.39,5.23,24.77-.31"/><path class="cls-9" d="M759.6,211.28s-5.08-4-7,3.07,9.85,16.3,9.85,16.3Z"/><path class="cls-9" d="M826.28,212.51s2.86-4.61,5.4,1.23-8.89,18.76-8.89,18.76Z"/><path class="cls-1" d="M794.71,236.41s-15.11-2.07-18.28,2.86c-2.75,4.25-1.22,16.08,1.3,21.8a29,29,0,0,0,12.67,5.26c6.15,1.07,12.86-1.36,18.24-4.75,1.25-1.72,3.05-6.1,2.4-16.78C810.51,236.16,806.65,235.32,794.71,236.41Zm11.36,20a20.73,20.73,0,0,1-12,3.46c-2.56-.08-10.78-.22-13.63-3s-5.13-13.37-2.28-16.82,16.41-2,16.41-2c10.73-.77,14.19-.19,14.67,5.87C810.08,255,806.07,256.38,806.07,256.38Z"/><path class="cls-1" d="M798.26,254.82c0,1.24-1.84,5-4.11,5s-4.1-3.78-4.1-5,1.84-2.26,4.1-2.26S798.26,253.57,798.26,254.82Z"/><polygon class="cls-9" points="793.31 278.02 770.35 298.74 758.09 267.36 765.95 261.27 793.31 278.02"/><polygon class="cls-9" points="793.31 278.02 811.87 301.48 824.13 270.41 817.21 264.01 793.31 278.02"/><polyline class="cls-1" points="893.25 167.78 746.55 361.85 773.23 361.85 900.66 173.71"/><path class="cls-9" d="M657.59,380.44h37c3.56-4,7-8.57,7.89-9.67a20.31,20.31,0,0,0,3.15-18.31c-2.75-9.53-11.81-14.87-11.81-14.87L684,339.5s-8.27-2.67-14.57,0-14.57,11.82-17.72,22.5C649.22,370.54,653.25,376.88,657.59,380.44Z"/><path class="cls-7" d="M681.14,341.31c-6.9,9.15-11.75,21.12-4.46,31.39"/><path class="cls-9" d="M737.34,328.16s6.52-1.58,8.69-.26,4.62,5.79,5.7,8.15-.54,4.47-4.07,5-8.14-3.95-8.14-3.95Z"/><polygon class="cls-1" points="872.05 342.43 866.79 335.87 812.31 368.99 773.23 368.99 719.13 339.15 714.62 343.88 741.23 380.44 841.52 380.44 872.05 342.43"/><path class="cls-1" d="M711.94,380.44c2.4-41.39,37.77-74.25,81.11-74.25s78.72,32.86,81.12,74.25h13c-2.41-48.33-43.58-86.8-94.08-86.8s-91.66,38.47-94.08,86.8Z"/><path class="cls-9" d="M701.77,321.85s-16.56,23.14-17.1,31.3,3.25,16.57,11.4,17.88,9.5-3.68,9.5-3.68S723.22,371,724,371a3.87,3.87,0,0,0,3.26-2.63,24.37,24.37,0,0,1,1.9-4.21,13.86,13.86,0,0,0,4.07-4.47,43.45,43.45,0,0,0,2.17-4.21s3-4.2,3.53-6a24.46,24.46,0,0,0,.55-5.26s2.71-3.42,2.44-7.11-4.07-10.25-12-14.46-19-6.05-22.81-5.52S701.77,321.85,701.77,321.85Z"/><line class="cls-7" x1="717.2" y1="331.79" x2="739.52" y2="344.21"/><line class="cls-7" x1="712.09" y1="328.95" x2="714.95" y2="330.54"/><line class="cls-7" x1="705.57" y1="340.52" x2="735.44" y2="355.51"/><line class="cls-7" x1="709.64" y1="355.8" x2="729.2" y2="364.19"/><line class="cls-7" x1="702.86" y1="352.88" x2="706.74" y2="354.55"/><path class="cls-9" d="M893.13,380.44h37c4.34-3.56,8.37-9.9,5.85-18.44-3.15-10.68-11.42-19.84-17.72-22.5s-14.57,0-14.57,0l-9.84-1.91s-9.06,5.34-11.81,14.87a20.31,20.31,0,0,0,3.15,18.31C886.15,371.87,889.57,376.43,893.13,380.44Z"/><path class="cls-7" d="M913.44,368.36a20.26,20.26,0,0,1-2.35,4.34"/><path class="cls-7" d="M906.63,341.31c5.06,6.71,9,14.94,7.89,22.89"/><path class="cls-9" d="M850.43,328.16s-6.52-1.58-8.69-.26-4.62,5.79-5.71,8.15.55,4.47,4.08,5,8.14-3.95,8.14-3.95Z"/><path class="cls-9" d="M886,321.85s16.56,23.14,17.1,31.3-3.25,16.57-11.4,17.88-9.5-3.68-9.5-3.68S864.55,371,863.73,371a3.87,3.87,0,0,1-3.26-2.63,24.37,24.37,0,0,0-1.9-4.21,13.86,13.86,0,0,1-4.07-4.47,43.45,43.45,0,0,1-2.17-4.21s-3-4.2-3.53-6a24.46,24.46,0,0,1-.55-5.26s-2.71-3.42-2.44-7.11,4.07-10.25,12-14.46,19-6.05,22.81-5.52S886,321.85,886,321.85Z"/><line class="cls-7" x1="870.57" y1="331.79" x2="848.25" y2="344.21"/><line class="cls-7" x1="875.68" y1="328.95" x2="872.82" y2="330.54"/><line class="cls-7" x1="882.2" y1="340.52" x2="852.33" y2="355.51"/><line class="cls-7" x1="878.13" y1="355.8" x2="858.57" y2="364.19"/><line class="cls-7" x1="884.91" y1="352.88" x2="881.03" y2="354.55"/><path class="cls-1" d="M962,540.7V694.79H340.05V540.7H223.14V765.88c0,17.47,14.62,31.63,32.66,31.63h51.59c18,0,32.66-14.16,32.66-31.63V755.49H396.7l26.51-16.35H876.38l33.74,18.68H962v8.06c0,17.47,14.62,31.63,32.65,31.63h51.6c18,0,32.65-14.16,32.65-31.63V540.7Z"/><path class="cls-11" d="M1054.75,429.8c-4.33-8.39-35.92-40.35-42.28-46.74a10.89,10.89,0,0,1-1.85-2.49c-7.74-14.29-73.33-178-84.83-198.78-21.1-38.12-38-32.38-60.57-35.15-.67-.08-1.32.11-2,.08l-171.14-8.38q-42.27-2.07-84.6,0-69.48,3.38-138.95,6.74c-38.65,1.91-75.91-.52-97.15,36.74-11.77,20.64-77.09,184.41-84.83,198.76a10.71,10.71,0,0,1-1.87,2.52c-6.37,6.41-37.93,38.34-42.26,46.73-4.82,9.34-24.11,44.36-24.11,51.37,0,6,4.49,105.9,24.29,184.17a67.85,67.85,0,0,0,48,48.56,17.45,17.45,0,0,0,3.63.73H444.38a11.42,11.42,0,0,0,9.83-5.49l35.52-59.42a11.07,11.07,0,0,1,2.7-3.05c5.59-4.37,24.48-17.25,52.51-17.25h207.3c28,0,46.91,12.88,52.51,17.25a11.23,11.23,0,0,1,2.7,3.05L843,709.14a11.44,11.44,0,0,0,9.83,5.49h150.14a17.51,17.51,0,0,0,3.62-.73,67.85,67.85,0,0,0,48-48.56c19.8-78.27,24.28-178.13,24.28-184.17C1078.85,474.16,1059.57,439.14,1054.75,429.8ZM318.36,355.09C348.49,297.9,405.13,169,405.13,169c276-26.85,488.12-1.17,488.12-1.17l82,187.31C788.39,337.58,318.36,355.09,318.36,355.09Z"/><path class="cls-2" d="M450.93,714.63l-8.44,18.68H852.27l-6-18.68-39.78-66.54s-15.66-17.51-54.23-18.67-207.3,0-207.3,0S516,627.08,490.7,648.09Z"/><path class="cls-1" d="M485.88,492.84s32.54,56,42.19,65.37,20.48,9.34,33.74,10.5,195.25,0,195.25,0,14.46-2.33,21.69-12.84,31.34-63,31.34-63Z"/><path class="cls-2" d="M518.17,500.45S544.23,545.32,552,552.8s16.41,7.47,27,8.41,156.35,0,156.35,0,11.59-1.87,17.38-10.28,25.09-50.48,25.09-50.48Z"/><path class="cls-1" d="M784,694.79l-7.21-19.29a31.25,31.25,0,0,0-30-20L551,657.43a31.12,31.12,0,0,0-29.51,22.18l-4.87,15.18Z"/><polygon class="cls-1" points="513.58 704.12 507.58 722.8 794.42 722.8 787.44 704.12 513.58 704.12"/><path class="cls-1" d="M1011.36,381.94s6-45.52,16.87-45.52,59.06,12.84,60.27,22.18-9.65,19.84-19.29,22.18-30.13,4.66-30.13,4.66L1034.26,403Z"/><path class="cls-1" d="M285.81,381.94s-6-45.52-16.87-45.52-59.05,12.84-60.26,22.18,9.64,19.84,19.28,22.18,30.13,4.66,30.13,4.66L262.92,403Z"/><path class="cls-9" d="M425.62,487s21.7,22.18,28.93,63c0,0-102.45-4.67-142.22-19.85s-44.59-16.34-45.8-23.34,2.41-57.2,18.08-65.37,32.54-5.84,48.21,5.83,34.95,29.19,45.8,32.69S425.62,487,425.62,487Z"/><path class="cls-9" d="M355.42,490.39c0,15.11-12.65,27.36-28.25,27.36s-28.24-12.25-28.24-27.36S311.57,463,327.17,463,355.42,475.28,355.42,490.39Z"/><path class="cls-9" d="M405.86,524.59a13.12,13.12,0,1,1-13.11-12.7A12.91,12.91,0,0,1,405.86,524.59Z"/><path class="cls-9" d="M875,487s-21.7,22.18-28.93,63c0,0,102.45-4.67,142.22-19.85s44.59-16.34,45.8-23.34-2.41-57.2-18.08-65.37-32.54-5.84-48.21,5.83S932.81,476.5,922,480,875,487,875,487Z"/><path class="cls-9" d="M951.65,490.39c0,15.11,12.65,27.36,28.25,27.36s28.25-12.25,28.25-27.36S995.5,463,979.9,463,951.65,475.28,951.65,490.39Z"/><path class="cls-9" d="M901.21,524.59a13.12,13.12,0,1,0,13.11-12.7A12.91,12.91,0,0,0,901.21,524.59Z"/><path class="cls-1" d="M1004.13,590.89s-112.09,21-116.91,24.52-14.46,23.34-14.46,23.34l22.9-5.83s53,2.33,71.11-5.84S1004.13,590.89,1004.13,590.89Z"/><path class="cls-1" d="M301.48,590.89s112.09,21,116.91,24.52,14.46,23.34,14.46,23.34L410,632.92s-53,2.33-71.11-5.84S301.48,590.89,301.48,590.89Z"/><polyline class="cls-7" points="863.65 504.97 833.72 495.3 810.09 495.3"/><polyline class="cls-7" points="438.91 503.59 458.86 492.54 485.88 492.84"/><path class="cls-7" d="M948.49,374.41q4.56-2.54,9.23-4.73"/><path class="cls-7" d="M815.81,540.13c18.86-40.15,62-120,122.23-159.4"/><path class="cls-7" d="M805.21,564.33s1.49-3.82,4.37-10.43"/><path class="cls-7" d="M359,380.71c-5-2.94-10.18-5.71-15.54-8.27"/><path class="cls-7" d="M479.67,541c-12.35-35.72-44.51-109.65-110.1-153.63"/><path class="cls-7" d="M485.94,561.57s-.89-3.71-2.87-10.15"/><path class="cls-9" d="M309.2,437.32S296.37,407,296.37,389"/><path class="cls-9" d="M994.78,435.94s4.28-13.8,7.13-38.65"/><path class="cls-7" d="M1039,565.71l-8.56,107.68-158.21,6.9s-27.08-31.75-28.5-45.56,18.53-34.51,24.23-35.89S973.4,578.13,973.4,578.13"/><path class="cls-7" d="M265,565.71l8.55,107.68,158.21,6.9s27.08-31.75,28.5-45.56S441.68,600.22,436,598.84s-105.47-20.71-105.47-20.71"/><path class="cls-7" d="M529.44,518.85l116.3,9a98.15,98.15,0,0,0,14.85,0l107.2-8.06"/><path class="cls-7" d="M537.11,530.65l108.63,8.41a96.86,96.86,0,0,0,14.85,0L764,531.3"/><path class="cls-7" d="M544.88,542.45l100.86,7.81a98.15,98.15,0,0,0,14.85,0l98.21-7.39"/><path class="cls-7" d="M318.36,355.09s470-17.51,656.84,0l-82-187.31S681.13,142.1,405.13,169C405.13,169,348.49,297.9,318.36,355.09Z"/></g></svg>