<svg xmlns="http://www.w3.org/2000/svg" viewBox="0 0 1280 800"><defs><style>.cls-1{fill:#ff9;opacity:0.87;}.cls-2,.cls-4,.cls-9{fill:#263238;}.cls-10,.cls-11,.cls-12,.cls-2,.cls-3,.cls-4,.cls-5,.cls-6,.cls-7,.cls-8{stroke:#263238;stroke-width:2.48px;}.cls-10,.cls-11,.cls-12,.cls-2,.cls-3,.cls-8{stroke-linecap:round;stroke-linejoin:round;}.cls-3{fill:#787878;}.cls-4,.cls-5,.cls-6,.cls-7{stroke-miterlimit:10;}.cls-5{fill:#b2b2b2;}.cls-6,.cls-8{fill:none;}.cls-10,.cls-7{fill:#fff;}.cls-11{fill:#c1b6d9;}.cls-12{fill:#c5c0cf;}</style></defs><g id="Floor"><rect class="cls-1" x="-5.67" y="-0.02" width="1284" height="802"/></g><g id="Characters"><rect class="cls-2" x="594.14" y="445.68" width="97.7" height="38.08" rx="3.99"/><rect class="cls-2" x="634.65" y="427.22" width="9.53" height="28.85"/><path class="cls-2" d="M978.82,634.08l-34.17-25.67L897,438l-79.25-9.47,34.28,123.33H451.33l34.28-123.33L406.36,438,358.06,610.9,322,634.08ZM827.56,438l59.71,4.2L925.44,594l-56.08-42.13h-3Zm-411.43,4.2,59.71-4.2L434,560.69l1.43.48-58.75,37.74Z"/><path class="cls-3" d="M571.58,641.87l-5.88-81.18c-1.4-19.28-18-34.22-37.91-34.22h-77c-19.95,0-36.51,14.94-37.91,34.22L407,641.87Z"/><path class="cls-3" d="M875.25,641.87l-5.89-81.18c-1.39-19.28-18-34.22-37.9-34.22h-77c-20,0-36.51,14.94-37.91,34.22l-5.88,81.18Z"/><path class="cls-4" d="M469.82,466.51s-14.77-10.22-23.91-5.45-28.13,56.54-31,68.12,14.77,21.11,26.73,24.52,35.86-4.09,41.49-9.54S469.82,466.51,469.82,466.51Z"/><path class="cls-5" d="M569.58,644c-.9-2.74-1.43-4.45-1.43-4.45s-10.25-53.15-12.81-57.4S521,564.1,521,564.1l-55.24-2.83s-41.34,19.49-41.7,22c-.2,1.32-8.11,32.15-15.49,60.79Z"/><path class="cls-6" d="M440,604.25c3.24,9.09,5.43,15.48,6.77,23.71"/><path class="cls-6" d="M548.32,607.94c-1.76,5.84-6.21,13.6-4.88,19.85"/><path class="cls-4" d="M496.45,448.28s-32.88,8.84-42,26-9.74,20.93-4.57,29.19,18,23,29.84,28.89,49.62-2.65,49.62-2.65,11.57-5,15.22-13.86,11.88-21.23,6.4-34.5-29.84-31.55-37.45-33.61S496.45,448.28,496.45,448.28Z"/><path class="cls-7" d="M520.38,470.65s-16.4,9.77-24.8,15.48a83.61,83.61,0,0,1-18.5,9s-7.57,3.25-5.89,11.81S476.06,545,476.06,545l-5.71,12,24.38,26.06,19.35-24.43,2.1-12.63s17.66-10.59,18.08-13,5.46-38.28,5-42S520.38,470.65,520.38,470.65Z"/><path class="cls-8" d="M523.24,495.75s-.91,8-.91,9.14,7.31,7.37,4.57,9.73-8.22,3.84-8.22,3.84"/><path class="cls-8" d="M519.59,525.83s-3,3.24-9.74-3.54"/><path class="cls-2" d="M516.18,546s-6.94-.7-9.68-2.47-10.66-7.67-10.66-7.67l15.53,25.95,2.71-3.18Z"/><path class="cls-7" d="M480.32,502.83s-5.79-16.81-12.49-7.37,4,22.7,9.14,22.41"/><path class="cls-9" d="M510.76,501.94c0,2-1.16,3.54-2.59,3.54s-2.58-1.58-2.58-3.54,1.15-3.54,2.58-3.54S510.76,500,510.76,501.94Z"/><path class="cls-9" d="M533.59,501.94c0,2-1.15,3.54-2.58,3.54s-2.59-1.58-2.59-3.54,1.16-3.54,2.59-3.54S533.59,500,533.59,501.94Z"/><path class="cls-8" d="M501.32,494.28a10.84,10.84,0,0,1,12.79-1.18"/><path class="cls-8" d="M526,492.51s8.22-3.25,10,2.95"/><polygon class="cls-7" points="470.27 547.94 491.58 574.18 476.97 589.52 460.53 560.92 470.27 547.94"/><polyline class="cls-2" points="401.76 446.77 500.95 640.84 474.27 640.84 394.35 452.7"/><polygon class="cls-7" points="491.58 574.18 494.74 583.05 487.32 579.49 491.58 574.18"/><polygon class="cls-7" points="499.19 569.76 509.54 589.52 525.37 563.57 514.72 555.31 499.19 569.76"/><polygon class="cls-7" points="499.19 569.76 494.74 583.05 502.24 575.95 499.19 569.76"/><path class="cls-10" d="M927.73,659.43c1.74-3.73,10.54-23.2,7.38-28.35-17.92-29.19-23.19-9.85-29.6-24.45-10.77-24.54-19.88-41.64-23.75-44.21-7.48-4.95-56.7-14.11-56.7-14.11l-60.24-1.52s-52,20.59-55.52,25.17a140.68,140.68,0,0,0-20.48,33.09c-.79,1.85-18.75,15.75-19.55,17.62-8.47,19.92-.6,33.74,1.4,36.76Z"/><path class="cls-8" d="M727.68,592.69c.6,20.12.6,39.35,1.46,59.2"/><line class="cls-8" x1="727.38" y1="580.58" x2="727.53" y2="586.62"/><path class="cls-8" d="M866,590.73l-3.6,46.44q-.58,7.4-1.15,14.8"/><line class="cls-8" x1="866.82" y1="579.45" x2="866.51" y2="583.55"/><path class="cls-11" d="M781.2,612.76c.61,10.73-.6,32.43-1.54,46.67H819.9c-1.92-16.93-5-44.32-5.68-50.33C813.28,600.27,801,575,801,575l7.87-10.06-14.16-14.31-9.12,13.71,7.24,11.57S780.26,596,781.2,612.76Z"/><polygon class="cls-10" points="772.71 524.42 770.19 542.7 796.93 557.01 820.83 543 819.88 529.6 772.71 524.42"/><polygon class="cls-2" points="770.19 542.7 779.17 547.51 794.38 541.35 777.43 524.94 772.71 524.42 770.19 542.7"/><path class="cls-10" d="M770.84,452.13s-8.9,6.15-9.53,15.07,4.13,50.13,9.21,59.36,11.11,16.61,23.5,18.76,27-9.84,28.57-15.38,7.62-34.14,7.62-44.9,1.27-23.07-8.89-32-26.67-10.77-34.61-9.23S770.84,452.13,770.84,452.13Z"/><path class="cls-2" d="M821.32,453.06c-10.16-8.92-26.67-10.77-34.61-9.23s-15.87,8.3-15.87,8.3-8.9,6.15-9.53,15.07c-.31,4.35.66,16.35,2.33,28.59.65.11,1.48-.18,1.48-2.45,0-3.69-2.22-5.84.64-8.91s7.3-7.39,9.84-11.38,1.9-10.15,1.9-10.15,5.72,4.61,17.15,5.84,23.82,1.23,25.72,1.54-.63,2.15,2.22,5.84,4.13,5.54,4.45,7.38c.27,1.59,1.73,10.5,2.12,12.92A89.39,89.39,0,0,0,830.21,485C830.21,474.28,831.48,462,821.32,453.06Z"/><path class="cls-8" d="M790.21,510s5.39,3.38,8.89,2.77a20.61,20.61,0,0,0,7-3.08"/><path class="cls-8" d="M806.4,486.89s7.3-5.23,14.61.61"/><path class="cls-8" d="M791.16,487.5s-8.58-5.54-14.61,1.23"/><path class="cls-9" d="M786.39,493.34c0,1.53-.78,2.77-1.74,2.77s-1.75-1.24-1.75-2.77.78-2.76,1.75-2.76S786.39,491.82,786.39,493.34Z"/><path class="cls-9" d="M812.91,493.34c0,1.53-.78,2.77-1.75,2.77s-1.74-1.24-1.74-2.77.78-2.76,1.74-2.76S812.91,491.82,812.91,493.34Z"/><path class="cls-8" d="M784.49,520.1s12.38,5.23,24.77-.31"/><path class="cls-10" d="M763.22,490.27s-5.09-4-7,3.07,9.84,16.3,9.84,16.3Z"/><path class="cls-10" d="M829.9,491.5s2.85-4.61,5.39,1.23-8.89,18.76-8.89,18.76Z"/><path class="cls-2" d="M798.32,515.4s-15.1-2.07-18.28,2.85c-2.74,4.26-1.21,16.09,1.31,21.8A28.83,28.83,0,0,0,794,545.32c6.15,1.07,12.85-1.36,18.24-4.75,1.25-1.72,3-6.1,2.39-16.78C814.12,515.15,810.27,514.31,798.32,515.4Zm11.37,20a20.73,20.73,0,0,1-12,3.46c-2.57-.08-10.79-.22-13.64-3s-5.13-13.36-2.28-16.81,16.42-2,16.42-2c10.72-.76,14.19-.18,14.66,5.88C813.7,534,809.69,535.37,809.69,535.37Z"/><path class="cls-2" d="M801.87,533.8c0,1.25-1.83,5-4.1,5s-4.11-3.78-4.11-5,1.84-2.25,4.11-2.25S801.87,532.56,801.87,533.8Z"/><polygon class="cls-10" points="796.93 557.01 773.97 577.73 761.7 546.35 769.56 540.26 796.93 557.01"/><polygon class="cls-10" points="796.93 557.01 815.48 580.47 827.75 549.4 820.83 543 796.93 557.01"/><polyline class="cls-2" points="896.87 446.77 750.17 640.84 776.85 640.84 904.27 452.7"/><path class="cls-10" d="M661.2,659.43h37c3.56-4,7-8.57,7.9-9.67a20.34,20.34,0,0,0,3.15-18.31c-2.76-9.53-11.81-14.87-11.81-14.87l-9.85,1.9s-8.27-2.66-14.57,0S658.5,630.31,655.35,641C652.83,649.53,656.87,655.87,661.2,659.43Z"/><path class="cls-8" d="M684.75,620.3c-6.89,9.15-11.74,21.12-4.45,31.39"/><path class="cls-10" d="M741,607.15s6.52-1.58,8.69-.26,4.61,5.78,5.7,8.15-.54,4.47-4.07,5-8.15-3.95-8.15-3.95Z"/><polygon class="cls-2" points="875.66 621.41 870.4 614.86 815.92 647.98 776.85 647.98 722.75 618.14 718.24 622.87 744.85 659.43 845.14 659.43 875.66 621.41"/><path class="cls-2" d="M715.55,659.43c2.4-41.39,37.78-74.25,81.12-74.25s78.71,32.86,81.11,74.25h13c-2.42-48.33-43.59-86.8-94.08-86.8S705,611.1,702.59,659.43Z"/><path class="cls-10" d="M705.39,600.84s-16.57,23.14-17.11,31.3,3.26,16.57,11.41,17.88,9.5-3.68,9.5-3.68S726.84,650,727.65,650a3.85,3.85,0,0,0,3.26-2.63,25.22,25.22,0,0,1,1.9-4.21,14,14,0,0,0,4.08-4.47,43.45,43.45,0,0,0,2.17-4.21s3-4.2,3.53-6a24.85,24.85,0,0,0,.54-5.26s2.72-3.41,2.45-7.1-4.08-10.25-12-14.46-19-6-22.81-5.52S705.39,600.84,705.39,600.84Z"/><line class="cls-8" x1="720.82" y1="610.78" x2="743.13" y2="623.19"/><line class="cls-8" x1="715.71" y1="607.94" x2="718.57" y2="609.53"/><line class="cls-8" x1="709.19" y1="619.51" x2="739.06" y2="634.5"/><line class="cls-8" x1="713.25" y1="634.78" x2="732.81" y2="643.18"/><line class="cls-8" x1="706.47" y1="631.87" x2="710.36" y2="633.54"/><path class="cls-10" d="M896.75,659.43h37c4.33-3.56,8.37-9.9,5.85-18.44-3.15-10.68-11.42-19.84-17.72-22.51s-14.57,0-14.57,0l-9.85-1.9s-9,5.34-11.81,14.87a20.34,20.34,0,0,0,3.15,18.31C889.76,650.86,893.19,655.42,896.75,659.43Z"/><path class="cls-8" d="M917.05,647.35a19.83,19.83,0,0,1-2.35,4.34"/><path class="cls-8" d="M910.25,620.3c5,6.71,9,14.94,7.89,22.89"/><path class="cls-10" d="M854,607.15s-6.52-1.58-8.69-.26-4.61,5.78-5.7,8.15.54,4.47,4.07,5,8.15-3.95,8.15-3.95Z"/><path class="cls-10" d="M889.61,600.84s16.57,23.14,17.11,31.3-3.26,16.57-11.41,17.88-9.5-3.68-9.5-3.68S868.16,650,867.35,650a3.85,3.85,0,0,1-3.26-2.63,24.37,24.37,0,0,0-1.9-4.21,14,14,0,0,1-4.08-4.47,46.82,46.82,0,0,1-2.17-4.21s-3-4.2-3.53-6a24.85,24.85,0,0,1-.54-5.26s-2.72-3.41-2.45-7.1,4.08-10.25,12-14.46,19-6,22.81-5.52S889.61,600.84,889.61,600.84Z"/><line class="cls-8" x1="874.19" y1="610.78" x2="851.87" y2="623.19"/><line class="cls-8" x1="879.29" y1="607.94" x2="876.43" y2="609.53"/><line class="cls-8" x1="885.81" y1="619.51" x2="855.94" y2="634.5"/><line class="cls-8" x1="881.75" y1="634.78" x2="862.19" y2="643.18"/><line class="cls-8" x1="888.53" y1="631.87" x2="884.65" y2="633.54"/><path class="cls-12" d="M1058.37,708.79c-4.34-8.39-35.93-40.36-42.28-46.74a11.23,11.23,0,0,1-1.86-2.49c-7.73-14.29-73.32-178-84.82-198.78-21.11-38.12-38-32.38-60.58-35.15-.66-.08-1.32.11-2,.08l-171.13-8.38q-42.27-2.07-84.6,0-69.48,3.38-138.95,6.74c-38.66,1.91-75.92-.52-97.16,36.74-11.76,20.63-77.09,184.41-84.82,198.76a10.92,10.92,0,0,1-1.87,2.52c-6.37,6.4-37.94,38.34-42.27,46.73-4.82,9.34-24.1,44.36-24.1,51.36,0,6.05,4.48,105.9,24.28,184.18a67.85,67.85,0,0,0,48,48.56,17.45,17.45,0,0,0,3.63.73H448a11.43,11.43,0,0,0,9.83-5.49l35.52-59.42a11.07,11.07,0,0,1,2.7-3.05c5.59-4.37,24.47-17.26,52.5-17.26h207.3c28,0,46.92,12.89,52.51,17.26a11.07,11.07,0,0,1,2.7,3.05l35.52,59.42a11.43,11.43,0,0,0,9.83,5.49h150.13a17.45,17.45,0,0,0,3.63-.73,67.85,67.85,0,0,0,48-48.56c19.81-78.27,24.29-178.13,24.29-184.18C1082.47,753.15,1063.19,718.13,1058.37,708.79ZM322,634.08c30.13-57.2,86.78-186.14,86.78-186.14,276-26.85,488.11-1.17,488.11-1.17l82,187.31C792,616.57,322,634.08,322,634.08Z"/><path class="cls-2" d="M489.5,771.83s32.54,56,42.18,65.37,20.49,9.34,33.75,10.5,195.24,0,195.24,0,14.47-2.33,21.7-12.84,31.33-63,31.33-63Z"/><path class="cls-3" d="M521.79,779.44s26.05,44.87,33.78,52.35,16.4,7.47,27,8.41,156.36,0,156.36,0,11.58-1.87,17.37-10.28,25.1-50.48,25.1-50.48Z"/><path class="cls-2" d="M1015,660.93s6-45.52,16.87-45.52,59.06,12.84,60.26,22.18-9.64,19.84-19.28,22.17-30.13,4.67-30.13,4.67l-4.82,17.51Z"/><path class="cls-2" d="M289.43,660.93s-6-45.52-16.87-45.52-59.06,12.84-60.26,22.18,9.64,19.84,19.28,22.17,30.13,4.67,30.13,4.67l4.82,17.51Z"/><path class="cls-10" d="M429.24,766s21.69,22.18,28.92,63c0,0-102.44-4.67-142.21-19.85s-44.6-16.34-45.8-23.34,2.41-57.2,18.08-65.37,32.54-5.84,48.2,5.83,35,29.19,45.8,32.69S429.24,766,429.24,766Z"/><path class="cls-10" d="M359,769.38c0,15.11-12.65,27.36-28.25,27.36s-28.25-12.25-28.25-27.36S315.19,742,330.79,742,359,754.27,359,769.38Z"/><ellipse class="cls-10" cx="396.36" cy="803.58" rx="13.11" ry="12.7"/><path class="cls-10" d="M878.57,766s-21.69,22.18-28.92,63c0,0,102.44-4.67,142.21-19.85s44.6-16.34,45.8-23.34-2.41-57.2-18.08-65.37-32.54-5.84-48.2,5.83-35,29.19-45.8,32.69S878.57,766,878.57,766Z"/><path class="cls-10" d="M955.27,769.38c0,15.11,12.64,27.36,28.24,27.36s28.25-12.25,28.25-27.36S999.11,742,983.51,742,955.27,754.27,955.27,769.38Z"/><path class="cls-10" d="M904.82,803.58a13.12,13.12,0,1,0,13.12-12.7A12.92,12.92,0,0,0,904.82,803.58Z"/><polyline class="cls-8" points="867.27 783.96 837.34 774.29 813.7 774.29"/><polyline class="cls-8" points="442.52 782.58 462.48 771.53 489.5 771.83"/><path class="cls-8" d="M952.11,653.4q4.54-2.53,9.23-4.73"/><path class="cls-8" d="M819.43,819.12c18.85-40.15,62-120,122.23-159.4"/><path class="cls-8" d="M362.57,659.7c-5-2.94-10.18-5.71-15.54-8.27"/><path class="cls-8" d="M483.28,820c-12.35-35.72-44.5-109.65-110.1-153.63"/><path class="cls-10" d="M312.82,716.31S300,685.94,300,668"/><path class="cls-10" d="M998.4,714.93s4.27-13.8,7.12-38.65"/><path class="cls-8" d="M533.05,797.84l116.31,9a98.15,98.15,0,0,0,14.85,0l107.19-8.06"/><path class="cls-8" d="M322,634.08s470-17.51,656.85,0l-82-187.31s-212.12-25.68-488.11,1.17C408.75,447.94,352.1,576.88,322,634.08Z"/></g></svg>